<svg width="1920" height="3315" viewBox="0 0 1920 3315" fill="none" xmlns="http://www.w3.org/2000/svg">
<g clip-path="url(#clip0_1_2)">
<rect width="1920" height="3315" fill="#141414"/>
<line x1="1370.5" y1="-50" x2="1370.5" y2="3222" stroke="#212121"/>
<line x1="470.5" y1="-50" x2="470.5" y2="3222" stroke="#212121"/>
<line x1="1820.5" y1="-50" x2="1820.5" y2="3222" stroke="#212121"/>
<line x1="920.5" y1="-50" x2="920.5" y2="3222" stroke="#212121"/>
<line x1="20.5" y1="-50" x2="20.4999" y2="3222" stroke="#212121"/>
<line x1="1520.5" y1="-50" x2="1520.5" y2="3222" stroke="#212121"/>
<line x1="620.5" y1="-50" x2="620.5" y2="3222" stroke="#212121"/>
<line x1="1070.5" y1="-50" x2="1070.5" y2="3222" stroke="#212121"/>
<line x1="170.5" y1="-50" x2="170.5" y2="3222" stroke="#212121"/>
<line x1="1670.5" y1="-50" x2="1670.5" y2="3222" stroke="#212121"/>
<line x1="770.5" y1="-50" x2="770.5" y2="3222" stroke="#212121"/>
<line x1="1220.5" y1="-50" x2="1220.5" y2="3222" stroke="#212121"/>
<line x1="320.5" y1="-50" x2="320.5" y2="3222" stroke="#212121"/>
<line x1="2190" y1="2565.5" x2="-630" y2="2565.5" stroke="#212121"/>
<line x1="2190" y1="1665.5" x2="-630" y2="1665.5" stroke="#212121"/>
<line x1="2190" y1="3015.5" x2="-630" y2="3015.5" stroke="#212121"/>
<line x1="2190" y1="2115.5" x2="-630" y2="2115.5" stroke="#212121"/>
<line x1="2190" y1="2715.5" x2="-630" y2="2715.5" stroke="#212121"/>
<line x1="2190" y1="1815.5" x2="-630" y2="1815.5" stroke="#212121"/>
<line x1="2190" y1="3165.5" x2="-630" y2="3165.5" stroke="#212121"/>
<line x1="2190" y1="2265.5" x2="-630" y2="2265.5" stroke="#212121"/>
<line x1="2190" y1="2865.5" x2="-630" y2="2865.5" stroke="#212121"/>
<line x1="2190" y1="1965.5" x2="-630" y2="1965.5" stroke="#212121"/>
<line x1="2190" y1="2415.5" x2="-630" y2="2415.5" stroke="#212121"/>
<line x1="2270" y1="1065.5" x2="-550.002" y2="1065.5" stroke="#212121"/>
<line x1="2270" y1="165.5" x2="-550.002" y2="165.5" stroke="#212121"/>
<line x1="2270" y1="1515.5" x2="-550.002" y2="1515.5" stroke="#212121"/>
<line x1="2270" y1="615.5" x2="-550.002" y2="615.5" stroke="#212121"/>
<line x1="2270" y1="1215.5" x2="-550.002" y2="1215.5" stroke="#212121"/>
<line x1="2270" y1="315.5" x2="-550.002" y2="315.5" stroke="#212121"/>
<line x1="2270" y1="1665.5" x2="-550.002" y2="1665.5" stroke="#212121"/>
<line x1="2270" y1="765.5" x2="-550.002" y2="765.5" stroke="#212121"/>
<line x1="2270" y1="1365.5" x2="-550.002" y2="1365.5" stroke="#212121"/>
<line x1="2270" y1="465.5" x2="-550.002" y2="465.5" stroke="#212121"/>
<line x1="2270" y1="1815.5" x2="-550.002" y2="1815.5" stroke="#212121"/>
<line x1="2270" y1="915.5" x2="-550.002" y2="915.5" stroke="#212121"/>
<line x1="2270" y1="15.5004" x2="-550.002" y2="15.5001" stroke="#212121"/>
<g filter="url(#filter0_f_1_2)">
<path fill-rule="evenodd" clip-rule="evenodd" d="M2143.48 631.886C2175.22 520.239 2214.02 406.438 2310.12 341.315C2417.28 268.703 2550.69 241.611 2676.92 270.397C2814.36 301.737 2978.23 364.461 3011.79 501.326C3044.56 634.942 2889.34 730.141 2818.59 848.113C2773.81 922.778 2754.7 1014.36 2678.66 1056.79C2600.54 1100.39 2508.63 1087.13 2420.79 1070.1C2316.05 1049.79 2193.63 1041.82 2136.59 951.678C2077.31 857.997 2113.17 738.498 2143.48 631.886Z" fill="#1E04C0" fill-opacity="0.5"/>
</g>
<g filter="url(#filter1_f_1_2)">
<path fill-rule="evenodd" clip-rule="evenodd" d="M-394.523 2832.89C-362.781 2721.24 -323.979 2607.44 -227.876 2542.31C-120.724 2469.7 12.6942 2442.61 138.923 2471.4C276.357 2502.74 440.234 2565.46 473.795 2702.33C506.559 2835.94 351.339 2931.14 280.586 3049.11C235.806 3123.78 216.695 3215.36 140.655 3257.79C62.5363 3301.39 -29.3666 3288.14 -117.209 3271.1C-221.946 3250.79 -344.366 3242.82 -401.408 3152.68C-460.692 3059 -424.834 2939.5 -394.523 2832.89Z" fill="#1E04C0" fill-opacity="0.5"/>
</g>
<g filter="url(#filter2_f_1_2)">
<path fill-rule="evenodd" clip-rule="evenodd" d="M1840.69 873.687C1885.22 737.501 1852.84 544.423 1983.52 485.658C2114.34 426.835 2235.47 584.113 2369.18 636.043C2487.59 682.033 2632.24 668.655 2711.11 768.238C2802.04 883.061 2850.22 1043.32 2800.95 1181.24C2752.54 1316.77 2606.3 1382.18 2472.69 1435.69C2354.27 1483.12 2230.08 1486.52 2105.33 1459.83C1962.21 1429.2 1785.41 1409.14 1725.18 1275.75C1665.53 1143.63 1795.64 1011.47 1840.69 873.687Z" fill="#8418F0" fill-opacity="0.5"/>
</g>
<g filter="url(#filter3_f_1_2)">
<path fill-rule="evenodd" clip-rule="evenodd" d="M-697.31 3074.69C-652.781 2938.5 -685.163 2745.42 -554.478 2686.66C-423.663 2627.83 -302.531 2785.11 -168.822 2837.04C-50.4052 2883.03 94.2448 2869.66 173.11 2969.24C264.044 3084.06 312.219 3244.32 262.951 3382.24C214.539 3517.77 68.2986 3583.18 -65.3109 3636.69C-183.734 3684.12 -307.917 3687.52 -432.666 3660.83C-575.788 3630.2 -752.593 3610.14 -812.818 3476.75C-872.472 3344.63 -742.361 3212.47 -697.31 3074.69Z" fill="#8418F0" fill-opacity="0.5"/>
</g>
<g filter="url(#filter4_f_1_2)">
<path fill-rule="evenodd" clip-rule="evenodd" d="M2088.95 792.469C2131.17 654.811 2191.82 499.972 2327.78 452.42C2457.59 407.021 2573.27 536.356 2704.63 577.147C2838.4 618.683 3023.35 568.356 3092.78 689.96C3162.3 811.741 3047.83 953.02 2992.85 1081.97C2945.6 1192.79 2914.43 1329.6 2801.78 1372.43C2693.25 1413.69 2593.43 1304.12 2480.56 1276.74C2349.28 1244.89 2182.93 1306.74 2098 1201.71C2008.77 1091.38 2047.37 928.073 2088.95 792.469Z" fill="#FB49FF" fill-opacity="0.5"/>
</g>
<g filter="url(#filter5_f_1_2)">
<path fill-rule="evenodd" clip-rule="evenodd" d="M-449.047 2993.47C-406.832 2855.81 -346.184 2700.97 -210.218 2653.42C-80.4054 2608.02 35.2651 2737.36 166.631 2778.15C300.397 2819.68 485.348 2769.36 554.776 2890.96C624.304 3012.74 509.835 3154.02 454.852 3282.97C407.602 3393.79 376.431 3530.6 263.783 3573.43C155.246 3614.69 55.4339 3505.12 -57.4362 3477.74C-188.722 3445.89 -355.071 3507.74 -440.001 3402.71C-529.226 3292.38 -490.633 3129.07 -449.047 2993.47Z" fill="#FB49FF" fill-opacity="0.5"/>
</g>
<g filter="url(#filter6_f_1_2)">
<path fill-rule="evenodd" clip-rule="evenodd" d="M-40.8928 -570.886C75.1156 -574.711 195.329 -572.47 286.662 -500.811C388.497 -420.913 454.994 -302.117 466.082 -173.123C478.155 -32.6792 468.407 142.521 348.3 216.229C231.046 288.187 93.0381 169.402 -40.8928 138.004C-125.659 118.132 -218.706 127.867 -282.311 68.3941C-347.656 7.29492 -363.067 -84.2709 -373.638 -173.123C-386.242 -279.064 -415.989 -398.082 -347.545 -479.9C-276.411 -564.933 -151.67 -567.234 -40.8928 -570.886Z" fill="#1E04C0" fill-opacity="0.5"/>
</g>
<g filter="url(#filter7_f_1_2)">
<path fill-rule="evenodd" clip-rule="evenodd" d="M-363.527 -785.49C-220.249 -784.622 -46.2487 -874.354 49.5771 -767.822C145.499 -661.182 32.6636 -497.85 23.9926 -354.673C16.3132 -227.871 73.1747 -94.1951 2.3927 11.2866C-79.2212 132.911 -217.149 227.672 -363.527 222.822C-507.364 218.056 -614.265 98.736 -705.977 -12.1854C-787.265 -110.499 -828.38 -227.727 -841.011 -354.673C-855.503 -500.315 -890.325 -674.815 -781.664 -772.855C-674.032 -869.968 -508.484 -786.368 -363.527 -785.49Z" fill="#8418F0" fill-opacity="0.5"/>
</g>
<g filter="url(#filter8_f_1_2)">
<path fill-rule="evenodd" clip-rule="evenodd" d="M-210.454 -573.832C-66.4796 -575.617 99.4795 -565.088 186.238 -450.105C269.069 -340.327 181.179 -190.718 182.402 -53.1705C183.646 86.8905 287.989 247.677 193.357 350.888C98.587 454.248 -70.8757 388.327 -210.454 375.298C-330.402 364.101 -470.203 376.146 -545.349 281.929C-617.752 191.151 -543.841 62.6721 -552.195 -53.1705C-561.911 -187.914 -671.55 -327.471 -597.435 -440.389C-519.573 -559.016 -352.28 -572.073 -210.454 -573.832Z" fill="#FB49FF" fill-opacity="0.5"/>
</g>
</g>
<defs>
<filter id="filter0_f_1_2" x="1804.67" y="-40.9088" width="1511.61" height="1427.09" filterUnits="userSpaceOnUse" color-interpolation-filters="sRGB">
<feFlood flood-opacity="0" result="BackgroundImageFix"/>
<feBlend mode="normal" in="SourceGraphic" in2="BackgroundImageFix" result="shape"/>
<feGaussianBlur stdDeviation="150" result="effect1_foregroundBlur_1_2"/>
</filter>
<filter id="filter1_f_1_2" x="-733.332" y="2160.09" width="1511.61" height="1427.09" filterUnits="userSpaceOnUse" color-interpolation-filters="sRGB">
<feFlood flood-opacity="0" result="BackgroundImageFix"/>
<feBlend mode="normal" in="SourceGraphic" in2="BackgroundImageFix" result="shape"/>
<feGaussianBlur stdDeviation="150" result="effect1_foregroundBlur_1_2"/>
</filter>
<filter id="filter2_f_1_2" x="1284.81" y="47.6829" width="1960.82" height="1853.84" filterUnits="userSpaceOnUse" color-interpolation-filters="sRGB">
<feFlood flood-opacity="0" result="BackgroundImageFix"/>
<feBlend mode="normal" in="SourceGraphic" in2="BackgroundImageFix" result="shape"/>
<feGaussianBlur stdDeviation="212.5" result="effect1_foregroundBlur_1_2"/>
</filter>
<filter id="filter3_f_1_2" x="-1253.19" y="2248.68" width="1960.82" height="1853.84" filterUnits="userSpaceOnUse" color-interpolation-filters="sRGB">
<feFlood flood-opacity="0" result="BackgroundImageFix"/>
<feBlend mode="normal" in="SourceGraphic" in2="BackgroundImageFix" result="shape"/>
<feGaussianBlur stdDeviation="212.5" result="effect1_foregroundBlur_1_2"/>
</filter>
<filter id="filter4_f_1_2" x="1643.82" y="42.8898" width="1870.72" height="1738.72" filterUnits="userSpaceOnUse" color-interpolation-filters="sRGB">
<feFlood flood-opacity="0" result="BackgroundImageFix"/>
<feBlend mode="normal" in="SourceGraphic" in2="BackgroundImageFix" result="shape"/>
<feGaussianBlur stdDeviation="200" result="effect1_foregroundBlur_1_2"/>
</filter>
<filter id="filter5_f_1_2" x="-894.183" y="2243.89" width="1870.72" height="1738.72" filterUnits="userSpaceOnUse" color-interpolation-filters="sRGB">
<feFlood flood-opacity="0" result="BackgroundImageFix"/>
<feBlend mode="normal" in="SourceGraphic" in2="BackgroundImageFix" result="shape"/>
<feGaussianBlur stdDeviation="200" result="effect1_foregroundBlur_1_2"/>
</filter>
<filter id="filter6_f_1_2" x="-691" y="-872" width="1461" height="1411" filterUnits="userSpaceOnUse" color-interpolation-filters="sRGB">
<feFlood flood-opacity="0" result="BackgroundImageFix"/>
<feBlend mode="normal" in="SourceGraphic" in2="BackgroundImageFix" result="shape"/>
<feGaussianBlur stdDeviation="150" result="effect1_foregroundBlur_1_2"/>
</filter>
<filter id="filter7_f_1_2" x="-1283" y="-1245" width="1796" height="1893" filterUnits="userSpaceOnUse" color-interpolation-filters="sRGB">
<feFlood flood-opacity="0" result="BackgroundImageFix"/>
<feBlend mode="normal" in="SourceGraphic" in2="BackgroundImageFix" result="shape"/>
<feGaussianBlur stdDeviation="212.5" result="effect1_foregroundBlur_1_2"/>
</filter>
<filter id="filter8_f_1_2" x="-1023" y="-974" width="1656" height="1782" filterUnits="userSpaceOnUse" color-interpolation-filters="sRGB">
<feFlood flood-opacity="0" result="BackgroundImageFix"/>
<feBlend mode="normal" in="SourceGraphic" in2="BackgroundImageFix" result="shape"/>
<feGaussianBlur stdDeviation="200" result="effect1_foregroundBlur_1_2"/>
</filter>
<clipPath id="clip0_1_2">
<rect width="1920" height="3315" fill="white"/>
</clipPath>
</defs>
</svg>
