<?xml version="1.0" encoding="UTF-8"?><svg id="uuid-8e82d2b7-061f-4fd8-b067-bbb1300bf015" xmlns="http://www.w3.org/2000/svg" viewBox="0 0 212.90579 167.28123"><defs><style>.uuid-8bae12f4-6581-442d-b71c-e09e23045f19{stroke-width:0px;}</style></defs><path class="uuid-8bae12f4-6581-442d-b71c-e09e23045f19" d="m197.69838,0H57.53384c-2.62475.00756-5.20354.69102-7.48764,1.98451-2.28372,1.29349-4.19628,3.15341-5.55268,5.40059L1.0859,79.72482c-.71053,1.1826-1.0859,2.53631-1.0859,3.91588s.37537,2.73328,1.0859,3.91588l43.40762,72.33972c1.3564,2.24704,3.26896,4.10706,5.55268,5.40051,2.2841,1.29345,4.86289,1.97707,7.48764,1.9844h140.16454c4.03329,0,7.90166-1.60203,10.75351-4.45389,2.85186-2.85184,4.45389-6.72021,4.45389-10.75312V15.2074c0-4.03325-1.60203-7.90132-4.45389-10.75325-2.85184-2.85196-6.72021-4.45416-10.75351-4.45416Zm0,152.07421H57.53384L16.47385,83.64071,57.53384,15.2074h140.16454v136.86681Zm-104.22757-51.00186l17.44091-17.43164-17.44091-17.43164c-1.4267-1.4267-2.2281-3.36166-2.2281-5.37927,0-2.01799.80141-3.95296,2.2281-5.37965,1.4267-1.42708,3.36204-2.22849,5.37966-2.22849s3.95296.8014,5.37966,2.22849l17.43125,17.44091,17.43164-17.44091c.70639-.70678,1.54525-1.26719,2.46833-1.64916.92306-.38236,1.91217-.57933,2.91132-.57933s1.98826.19697,2.91132.57933c.92307.38197,1.76193.94238,2.46833,1.64916.70641.70639,1.26681,1.54488,1.64917,2.46794.38235.92306.57894,1.91256.57894,2.91171,0,.99877-.19658,1.98826-.57894,2.91133-.38235.92306-.94276,1.76154-1.64917,2.46794l-17.4409,17.43164,17.4409,17.43164c.70641.7064,1.26681,1.54488,1.64917,2.46794.38235.92307.57894,1.91256.57894,2.91133,0,.99915-.19658,1.98865-.57894,2.91171-.38235.92306-.94276,1.76154-1.64917,2.46794-.70639.70678-1.54525,1.26718-2.46833,1.64916-.92306.38235-1.91217.57933-2.91132.57933s-1.98826-.19697-2.91132-.57933c-.92307-.38198-1.76193-.94238-2.46833-1.64916l-17.43164-17.44091-17.43125,17.44091c-.7064.70678-1.54527,1.26718-2.46833,1.64916-.92307.38235-1.91217.57933-2.91132.57933s-1.98826-.19697-2.91132-.57933c-.92307-.38198-1.76193-.94238-2.46833-1.64916-.70639-.7064-1.2668-1.54488-1.64916-2.46794-.38235-.92307-.57895-1.91256-.57895-2.91171,0-.99877.19659-1.98826.57895-2.91133.38236-.92306.94276-1.76154,1.64916-2.46794Z"/></svg>