<svg width="58" height="58" viewBox="0 0 58 58" fill="none" xmlns="http://www.w3.org/2000/svg">
<path d="M48.9375 10.875H39.875V9.0625C39.875 7.62039 39.3021 6.23734 38.2824 5.21761C37.2627 4.19788 35.8796 3.625 34.4375 3.625H23.5625C22.1204 3.625 20.7373 4.19788 19.7176 5.21761C18.6979 6.23734 18.125 7.62039 18.125 9.0625V10.875H9.0625C8.5818 10.875 8.12078 11.066 7.78087 11.4059C7.44096 11.7458 7.25 12.2068 7.25 12.6875C7.25 13.1682 7.44096 13.6292 7.78087 13.9691C8.12078 14.309 8.5818 14.5 9.0625 14.5H10.875V47.125C10.875 48.0864 11.2569 49.0084 11.9367 49.6883C12.6166 50.3681 13.5386 50.75 14.5 50.75H43.5C44.4614 50.75 45.3834 50.3681 46.0633 49.6883C46.7431 49.0084 47.125 48.0864 47.125 47.125V14.5H48.9375C49.4182 14.5 49.8792 14.309 50.2191 13.9691C50.559 13.6292 50.75 13.1682 50.75 12.6875C50.75 12.2068 50.559 11.7458 50.2191 11.4059C49.8792 11.066 49.4182 10.875 48.9375 10.875ZM21.75 9.0625C21.75 8.5818 21.941 8.12078 22.2809 7.78087C22.6208 7.44096 23.0818 7.25 23.5625 7.25H34.4375C34.9182 7.25 35.3792 7.44096 35.7191 7.78087C36.059 8.12078 36.25 8.5818 36.25 9.0625V10.875H21.75V9.0625ZM43.5 47.125H14.5V14.5H43.5V47.125ZM25.375 23.5625V38.0625C25.375 38.5432 25.184 39.0042 24.8441 39.3441C24.5042 39.684 24.0432 39.875 23.5625 39.875C23.0818 39.875 22.6208 39.684 22.2809 39.3441C21.941 39.0042 21.75 38.5432 21.75 38.0625V23.5625C21.75 23.0818 21.941 22.6208 22.2809 22.2809C22.6208 21.941 23.0818 21.75 23.5625 21.75C24.0432 21.75 24.5042 21.941 24.8441 22.2809C25.184 22.6208 25.375 23.0818 25.375 23.5625ZM36.25 23.5625V38.0625C36.25 38.5432 36.059 39.0042 35.7191 39.3441C35.3792 39.684 34.9182 39.875 34.4375 39.875C33.9568 39.875 33.4958 39.684 33.1559 39.3441C32.816 39.0042 32.625 38.5432 32.625 38.0625V23.5625C32.625 23.0818 32.816 22.6208 33.1559 22.2809C33.4958 21.941 33.9568 21.75 34.4375 21.75C34.9182 21.75 35.3792 21.941 35.7191 22.2809C36.059 22.6208 36.25 23.0818 36.25 23.5625Z" fill="white"/>
</svg>
