<svg width="15" height="51" viewBox="0 0 15 51" fill="none" xmlns="http://www.w3.org/2000/svg">
<path d="M13.3715 50.9379C12.8198 51.0732 12.2366 50.9855 11.7501 50.6942C11.2708 50.4073 -5.06582e-06 43.4936 -3.49266e-06 25.4988C-1.9195e-06 7.50395 11.2708 0.590221 11.7502 0.303364C12.2373 0.0131376 12.8208 -0.0732386 13.3722 0.0632437C13.9236 0.199726 14.3978 0.547886 14.6904 1.03112C14.983 1.51437 15.07 2.09311 14.9324 2.64003C14.7948 3.18695 14.4438 3.65726 13.9566 3.94749C13.5684 4.18388 4.28447 10.0166 4.28446 25.4988C4.28446 40.981 13.5684 46.8137 13.9647 47.0554C14.4512 47.3467 14.8011 47.8177 14.9374 48.3649C15.0737 48.9121 14.9854 49.4905 14.6917 49.9731C14.398 50.4556 13.9231 50.8027 13.3715 50.9379Z" fill="#7A7A7A"/>
</svg>
