<svg width="45" height="19" viewBox="0 0 45 19" fill="none" xmlns="http://www.w3.org/2000/svg">
<path d="M44.625 16.875C44.625 17.364 44.4307 17.833 44.085 18.1787C43.7392 18.5245 43.2702 18.7188 42.7812 18.7188H2.21875C1.72976 18.7188 1.26079 18.5245 0.915022 18.1787C0.569252 17.833 0.375 17.364 0.375 16.875C0.375 16.386 0.569252 15.917 0.915022 15.5713C1.26079 15.2255 1.72976 15.0312 2.21875 15.0312H42.7812C43.2702 15.0312 43.7392 15.2255 44.085 15.5713C44.4307 15.917 44.625 16.386 44.625 16.875ZM2.21875 3.96875H42.7812C43.2702 3.96875 43.7392 3.7745 44.085 3.42873C44.4307 3.08296 44.625 2.61399 44.625 2.125C44.625 1.63601 44.4307 1.16704 44.085 0.821272C43.7392 0.475502 43.2702 0.28125 42.7812 0.28125H2.21875C1.72976 0.28125 1.26079 0.475502 0.915022 0.821272C0.569252 1.16704 0.375 1.63601 0.375 2.125C0.375 2.61399 0.569252 3.08296 0.915022 3.42873C1.26079 3.7745 1.72976 3.96875 2.21875 3.96875Z" fill="white"/>
</svg>
