<svg width="15" height="51" viewBox="0 0 15 51" fill="none" xmlns="http://www.w3.org/2000/svg">
<path d="M1.62851 0.062086C2.18015 -0.0731505 2.76337 0.0145154 3.24985 0.305798C3.72918 0.592653 15 7.50639 15 25.5012C15 43.496 3.72918 50.4098 3.24985 50.6966C2.76266 50.9869 2.17919 51.0732 1.62779 50.9368C1.07639 50.8003 0.602238 50.4521 0.309638 49.9689C0.0170378 49.4856 -0.0700418 48.9069 0.0675565 48.36C0.205155 47.813 0.556162 47.3427 1.04336 47.0525C1.43164 46.8161 10.7155 40.9834 10.7155 25.5012C10.7155 10.019 1.43164 4.18631 1.03532 3.94461C0.548839 3.65332 0.198937 3.18228 0.0625946 2.63511C-0.0737482 2.08794 0.0146315 1.50945 0.308297 1.02692C0.601962 0.544383 1.07686 0.197322 1.62851 0.062086Z" fill="#7A7A7A"/>
</svg>
