<?xml version="1.0" encoding="UTF-8"?><svg id="uuid-4ce0ceb8-422e-41bc-9b80-329d0b30b1a8" xmlns="http://www.w3.org/2000/svg" viewBox="0 0 990.30113 924.33569"><defs><style>.uuid-ec7f1860-8e2f-4b7c-a129-2f87c0d454f8{fill:#fbf9e6;}.uuid-ec7f1860-8e2f-4b7c-a129-2f87c0d454f8,.uuid-d4c4dca9-1fa3-450c-93cc-4dade2734962,.uuid-cb278676-7181-437b-a1d0-d6beda0f8ac6,.uuid-1927776b-fb5f-47b5-882c-d0c245a1da5f,.uuid-5c9b1ff9-8d13-4939-a0c5-9f6ae728e4fd,.uuid-c81c6cf9-e78f-4d20-a0ac-439f6f76c4e7,.uuid-369e35b0-a8c8-4e63-9382-4b17b687e20a,.uuid-0ce6c370-bdee-4a9a-a6dd-158d76484cf1,.uuid-d8ca211f-e3b1-495e-8eb1-cfc8f25ecd0d,.uuid-1776b60c-6650-4cab-9b70-cf11a1bc671d,.uuid-ec843d66-a311-48d9-8b93-d436430d7231,.uuid-82a26cb3-5b68-470d-af79-e67dca93dd2d,.uuid-f4d12b0b-21fa-42eb-b1a6-1ceffb8dee98,.uuid-0db3cf0e-a53c-4b75-aaab-913495c02c28,.uuid-6a57e927-edac-4860-8542-83d9741dac35,.uuid-22685ce9-e9bf-4101-8334-00c9b08ecc06,.uuid-7b8d7b0f-47d6-4126-ae70-bc414c225660,.uuid-aca893d8-9028-4676-8764-82c350e8aa21,.uuid-654bdb26-8c91-4f34-9d28-32cdb20bd4c8,.uuid-1edbd8c7-e2e5-4e9e-ac3d-72818ef72c92,.uuid-daa0d228-5615-4c48-80f1-ea48214ec5b9,.uuid-7b8fcb29-b725-4998-957a-cced8e63b81b,.uuid-ffeac84a-2756-46aa-b608-ca0587a0981c,.uuid-861b855f-b1c1-4246-95a7-d567781b8dda,.uuid-30f41eee-6223-4f62-9952-5383895921ca,.uuid-26a71cac-5469-4f15-b44f-c369287ed0b4,.uuid-f2712fdf-658a-4154-abb8-145760fde5ce,.uuid-e2a3ebbc-8845-41bb-93b9-af453b6d5625,.uuid-8b16433d-c63d-4785-a648-44904937e939,.uuid-29732ea1-d93f-4d05-bc2d-13fc11551a55,.uuid-4e603c90-26d9-4524-8bcb-b756f1a67901,.uuid-d04a7950-12c1-4ea7-a11f-ed891933a2a2,.uuid-03da71ab-3ed3-4858-8ec6-63d93bc5f31d{stroke-width:0px;}.uuid-d4c4dca9-1fa3-450c-93cc-4dade2734962{fill:#ed998c;}.uuid-cb278676-7181-437b-a1d0-d6beda0f8ac6{fill:#abb6be;}.uuid-1927776b-fb5f-47b5-882c-d0c245a1da5f{fill:#feab88;}.uuid-5c9b1ff9-8d13-4939-a0c5-9f6ae728e4fd{fill:#c2a2a0;}.uuid-c81c6cf9-e78f-4d20-a0ac-439f6f76c4e7{fill:#df554f;}.uuid-369e35b0-a8c8-4e63-9382-4b17b687e20a{fill:#fddfbc;}.uuid-0ce6c370-bdee-4a9a-a6dd-158d76484cf1{fill:#9fd9e8;}.uuid-d8ca211f-e3b1-495e-8eb1-cfc8f25ecd0d{fill:#fcdcb6;}.uuid-1776b60c-6650-4cab-9b70-cf11a1bc671d{fill:#ffbc94;}.uuid-ec843d66-a311-48d9-8b93-d436430d7231{fill:#fef9e8;}.uuid-82a26cb3-5b68-470d-af79-e67dca93dd2d{fill:#99cddd;}.uuid-f4d12b0b-21fa-42eb-b1a6-1ceffb8dee98{fill:#fde4c4;}.uuid-0db3cf0e-a53c-4b75-aaab-913495c02c28{fill:#fffef8;}.uuid-6a57e927-edac-4860-8542-83d9741dac35{fill:#3d0312;}.uuid-22685ce9-e9bf-4101-8334-00c9b08ecc06{fill:#510810;}.uuid-7b8d7b0f-47d6-4126-ae70-bc414c225660{fill:#fe6c5e;}.uuid-aca893d8-9028-4676-8764-82c350e8aa21{fill:#a59ea4;}.uuid-654bdb26-8c91-4f34-9d28-32cdb20bd4c8{fill:#24010f;}.uuid-1edbd8c7-e2e5-4e9e-ac3d-72818ef72c92{fill:#fb6f64;}.uuid-daa0d228-5615-4c48-80f1-ea48214ec5b9{fill:#370113;}.uuid-7b8fcb29-b725-4998-957a-cced8e63b81b{fill:#feedd6;}.uuid-ffeac84a-2756-46aa-b608-ca0587a0981c{fill:#ed564e;}.uuid-861b855f-b1c1-4246-95a7-d567781b8dda{fill:#fefef9;}.uuid-30f41eee-6223-4f62-9952-5383895921ca{fill:#f9ae99;}.uuid-26a71cac-5469-4f15-b44f-c369287ed0b4{fill:#a5edf5;}.uuid-f2712fdf-658a-4154-abb8-145760fde5ce{fill:#bba3a4;}.uuid-e2a3ebbc-8845-41bb-93b9-af453b6d5625{fill:#96dae7;}.uuid-8b16433d-c63d-4785-a648-44904937e939{fill:#faf9e6;}.uuid-29732ea1-d93f-4d05-bc2d-13fc11551a55{fill:#40060d;}.uuid-4e603c90-26d9-4524-8bcb-b756f1a67901{fill:#fe856d;}.uuid-d04a7950-12c1-4ea7-a11f-ed891933a2a2{fill:#f9695a;}.uuid-03da71ab-3ed3-4858-8ec6-63d93bc5f31d{fill:#c59ca0;}</style></defs><path class="uuid-654bdb26-8c91-4f34-9d28-32cdb20bd4c8" d="m489.00074,923.9475c-72.28197,4.46309-138.36668-30.42677-201.95182-59.98638-16.16915-7.51676-32.2469-15.22266-48.31049-22.9616-16.1353-7.77346-32.28556-15.5165-48.43414-23.2626-21.69852-10.40836-43.84605-19.86469-65.31409-30.76424-19.30421-9.80104-37.77055-20.90654-54.5322-34.71006-17.18148-14.14921-31.04082-30.99074-41.86978-50.44705C-16.62028,620.58979,6.30113,524.56795,2.55033,432.3116c-1.59211-39.16025.5125-77.92493.97908-117.1179.36173-26.37179,5.71541-51.72826,16.51795-75.88478,8.32915-18.62555,19.28139-35.53871,32.68908-50.88195,8.65761-9.90744,18.20049-18.90825,28.74337-26.76177,12.44122-9.2676,25.16127-18.09612,39.32536-24.70381,85.03031-39.66754,168.58079-86.16353,256.78057-118.47987,21.05258-7.71365,42.7691-13.74826,65.08457-16.33572,31.19288-3.61678,62.95701-2.55275,93.94712,2.37259,30.23686,4.80563,56.03069,19.61661,83.42312,32.52539,19.20408,9.04999,38.323,18.28071,57.35344,27.69058,31.14643,15.4008,62.52691,30.32113,93.75722,45.54991,39.63404,19.32667,83.53384,36.80494,114.4915,69.88175,6.17907,6.60201,12.56615,13.00969,17.83682,20.38055,32.79166,45.8581,42.04534,97.4332,42.10841,152.87847.07449,65.44703-.54257,130.81501-.38601,196.27482.02215,9.2601-.05274,18.55061-.43706,27.81006-.87536,21.08777-2.2046,42.14057-6.23357,62.92992-6.70187,34.58174-20.20686,65.95705-43.42047,92.80101-25.61607,29.622-60.00966,46.97647-94.70194,63.57023-15.65656,7.48875-31.45504,14.68939-46.86122,22.6909-22.50421,11.68793-45.10177,23.19381-67.86814,34.35838-21.03809,10.31701-42.16976,20.44277-63.57695,29.98875-17.17142,7.65726-34.40102,15.16493-51.96292,21.8851-26.01163,9.95352-53.41493,16.50143-81.13893,18.21327Z"/><path class="uuid-369e35b0-a8c8-4e63-9382-4b17b687e20a" d="m93.41282,200.06708c.70444-1.11954,1.70942-1.85717,2.93735-2.31152,1.13516,1.19043.72766,2.54416.29874,3.82102-.79309,2.3609-1.84515,4.61357-3.4751,6.53004-2.48161,2.9179-3.00729,6.11735-1.40217,9.59593,1.01056,2.19004,1.0862,4.48824.99727,6.8152-.07767,2.03221.05022,3.99976,1.26258,5.7404.06883.09885.09383.18146.09969.2174.73334,4.49927,3.48221,8.14074,5.25799,12.19277,1.48595,3.39072,3.98883,6.18256,6.46736,8.89463,5.33716,5.84001,11.65724,10.32062,18.65804,14.07964,19.48716,10.46344,40.04042,18.56654,60.13577,27.68235,14.56604,6.60756,29.09164,13.31341,43.81393,19.55915,5.66297,2.40243,11.41317,4.58897,16.8093,7.55186,3.2391,1.7785,6.76032,2.87288,10.05799,4.41419,7.50477,3.50769,15.4002,6.20801,22.49367,10.5832,2.27896,1.40563,5.09822,1.29111,7.38219,2.74406,2.96078,1.88344,6.23826,3.30785,9.39058,4.70051,7.35919,3.25113,14.52045,6.95944,22.03214,9.86183,2.68605,1.03778,5.2499,2.35342,7.81504,3.6145,8.5251,4.19133,17.16592,8.16571,25.83751,11.99602,5.84517,2.58193,11.47026,5.58791,17.3181,8.13208,9.40901,4.09356,18.3729,9.12372,27.72549,13.30573,4.25266,1.90154,8.44178,4.06907,13.08231,5.1965,6.21878,1.51087,11.8792,4.71574,18.06478,6.44045,8.70255,2.42648,17.26829,5.44503,26.28495,6.52409,10.1317,1.21254,20.25151,2.61627,30.5159,2.26397,13.28271-.45589,26.11273-3.31037,38.91381-6.63404,14.72723-3.82365,28.47768-10.05812,42.26481-16.26111,18.08663-8.13744,35.91744-16.82317,53.92925-25.12228,16.12321-7.42896,32.37569-14.5904,48.34556-22.33274,7.39476-3.58509,15.10277-6.38341,22.47421-10.00497,7.31372-3.59326,14.84015-6.77643,22.18539-10.31531,14.98816-7.22118,30.21791-13.91104,45.32262-20.8747,20.26575-9.34304,40.37305-19.01042,60.31869-29.01533,3.78785-1.90002,7.62147-3.76354,11.22879-5.95427,5.00922-3.04216,9.02964-7.35226,13.05322-11.57754,1.15422-1.21216,2.20595-2.52905,3.40012-3.71212,1.84101-1.82367,3.35131-3.84037,4.07128-6.39959.36663-1.30324.81969-2.65645,1.72716-3.67163,2.15251-2.4079,2.68409-5.3556,3.18291-8.37894.7676-4.65322,1.48505-9.3212,2.93663-13.83437.53006-1.64823.393-3.31232-.12422-4.95959-.55156-1.75644-1.29707-3.44798-1.79587-5.224-.35211-1.24942-.67373-2.07078.06545-3.23671,11.48548,5.42909,18.03728,17.41754,23.97926,28.01191,8.46313,15.08949,16.39118,31.02633,20.59888,47.88943.09556.38299.10787.78672.15902,1.18079.30364.47048.01295,1.08527.37443,1.54169.02484.15416.04975.30832.07459.46248-2.03039,3.09727-2.25177,6.37717-1.10037,9.84841.36956,1.11419.26972,2.3006-.86071,2.99326-1.29332.79245-2.05629-.31778-2.87944-1.01572-3.15836-2.67791-5.96561-5.7353-9.61577-7.87078-6.43614-3.7655-13.35674-5.69748-20.73756-6.05303-3.35225-.16151-6.71833-.02188-10.07814-.02982-3.22475-.00765-6.25408,1.18479-9.35853,1.77375-4.88699.92707-9.91648,1.99849-14.3565,4.38003-7.63664,4.09617-15.88713,6.73078-23.68667,10.43511-20.15307,9.57158-40.30531,19.14577-60.57399,28.47448-24.84569,11.43536-49.81274,22.6014-74.72007,33.89956-15.29379,6.93735-30.6882,13.65437-45.94496,20.67372-7.70086,3.54299-15.37278,7.16625-22.85602,11.15104-7.86089,4.18588-16.39744,6.80414-24.36386,10.70792-11.27484,5.52495-22.55988,11.06549-32.80344,18.42809-9.10774,6.54618-16.97015,14.31738-23.17343,23.72379-1.71158,2.59538-3.51357,5.14125-5.46556,7.57356-1.35596,1.68949-2.52219,3.48926-3.20026,5.58926-.56627,1.75409-1.47772,3.36718-2.35806,4.98293-6.40825,11.76214-10.17436,24.46069-13.1264,37.426-.62053,2.72525-1.42006,5.42484-1.92135,8.13973-.77153,4.17861-2.01311,8.28316-1.81318,12.67623.30165,6.62678.12446,13.27588.06158,19.91478-.03229,3.41098-1.74656,5.51156-5.01109,6.45094-1.48053.42604-2.993.51814-4.51655.47479-4.44151-.12639-8.57133,1.12605-12.43873,3.12475-4.1055,2.12168-6.50168,5.26465-6.39817,10.3173.2456,11.9901.05824,23.9874.07468,35.98184.00243,1.77721-.10263,3.50268-.94852,5.12918-.65214,1.25396-.49314,2.65359-.49578,4.0091-.0281,14.55855.04269,29.11723-.04524,43.67578-.01078,1.7826-.10758,3.51979-1.0377,5.09701-.66175,1.12207-.30974,2.34533-.37252,3.52307-.14031,2.6301.23529,5.27648-.23532,7.89879-.93606,1.26908-1.20241,2.68266-1.25928,4.26275-.11822,3.28465-1.38376,6.36545-2.04373,9.5598-.38354,1.85637-1.10204,3.66252-1.54188,5.53459-1.90822,8.1218-5.30844,15.67154-9.02747,23.08412-2.87197,5.72426-6.22464,11.17377-9.69698,16.55338-4.02631,6.23789-9.39433,11.28064-14.55514,16.50768-4.72995,4.79045-9.86606,9.09902-15.38321,12.97184-7.9767,5.59945-16.56441,9.97752-25.74862,13.201-1.73736.60973-3.45658,1.24371-5.12843,2.02383-2.68646,1.2535-5.44157,2.38682-8.3649,2.91656-5.95264,1.07865-11.90586,2.17623-17.85211,3.27041-8.67443,1.59615-17.36778,1.14797-26.06841,1.25455-3.51887.04312-7.03885-.01242-10.55804.01436-2.08934.01588-4.16781.05848-6.05638-1.05908-.27308-.16154-.61519-.28822-.91746-.25248-4.53172.53672-8.81102-1.06535-13.18441-1.70807-3.33309-.48979-6.6687-1.32182-9.98852-2.06965-4.20517-.94734-8.20833-2.53523-12.3799-3.57176-7.69887-1.91279-15.09521-4.73783-22.54746-7.42312-13.8455-4.98908-27.30978-10.87553-40.75308-16.82291-6.21822-2.75098-11.76306-6.78937-18.03384-9.45562-7.03245-2.9901-13.42657-7.07982-19.53305-11.63232-2.23828-1.66881-4.89538-2.58006-7.10761-4.37314-3.76863-3.05455-8.2393-5.13246-12.12944-8.03812-3.39561-2.53635-6.71681-5.17008-10.23815-7.5368-1.66681-1.12025-3.16894-2.42695-4.37546-4.0609-.71413-.96703-1.54089-1.87459-2.55333-2.51848-4.1638-2.64756-7.52158-6.19682-10.92032-9.69293-4.18255-4.30242-8.74498-8.20166-13.00491-12.42674-4.19848-4.1642-7.7428-8.97023-12.43635-12.64201-.25062-.19611-.51919-.43582-.62001-.72398-1.47808-4.2249-5.30282-6.77678-7.48394-10.45389-3.47111-5.85187-8.07435-11.02623-11.255-16.91625-4.9122-9.0965-10.742-17.82814-13.67418-27.92127-.22337-.76887-.37169-1.65633-.9819-2.16158-2.74621-2.27402-2.95665-5.54209-3.48603-8.66936-.29654-1.75178-.80853-3.40137-1.50235-5.0342-3.65066-8.59184-5.99202-17.55182-7.20915-26.79328-.33796-2.56605-1.01048-4.99535-1.93349-7.38686-.11892-5.8899-2.34434-11.58029-1.64849-17.54426-2.77439-9.98736-1.28825-20.19182-1.31423-30.28113-.15861-61.58991-.07739-123.18038-.08063-184.77067-.00079-15.08897,7.14731-26.49185,18.84959-35.15613,3.33204-2.467,7.42664-4.12058,11.72849-5.15036,4.11373-.98479,8.14158-2.26222,12.68583-2.6061-3.93544.20657-7.57776.15926-11.21724.11467-5.74775-.0704-10.83279,1.8472-15.46341,5.08034-3.49111,2.43753-6.48868,5.41535-9.24597,8.66877-1.99337,2.35204-3.57036,1.92056-4.49553-1.06893-.60437-1.9529-.56311-3.96352-.24655-5.94674,1.43851-9.01213,2.94982-17.99057,7.07288-26.30713,1.30451-2.63133,1.88377-5.59992,2.97454-8.35386,3.67667-9.28273,8.68843-17.94498,14.51456-25.89047,3.90613-5.32702,6.79501-11.35482,11.38308-16.21913,2.57712-2.73231,3.94569-6.37008,5.84725-9.60681Z"/><path class="uuid-ec843d66-a311-48d9-8b93-d436430d7231" d="m854.83592,202.5661c-.07061,1.46808.38216,2.82706.86405,4.18176.53501,1.50386,1.06159,3.01075,1.58776,4.51775,1.16818,3.34581-.48105,7.12715-1.25612,10.41011-1.52665,4.96161-1.88419,10.29963-3.90906,15.10742-6.2628,14.87021-18.29066,24.97074-32.38992,32.19087-7.89489,4.04292-15.82501,8.01706-23.78914,11.92182-18.83909,9.23669-38.27261,17.31717-57.02694,26.69433-16.55104,7.43139-32.92523,15.28794-49.43378,22.82527-6.87424,3.13858-13.75421,6.26458-20.63418,9.39058-12.61749,6.30874-25.77376,11.72592-38.60484,17.59191-2.54152,1.16191-5.06799,2.35696-7.5965,3.54706-15.98165,7.52209-32.27425,15.21671-48.47074,22.59977-16.03173,7.30795-32.12649,15.28763-49.01079,20.40822-8.36466,2.5368-16.92582,4.42995-25.5841,5.63182-7.12111.98849-14.31448,1.49963-21.50512,1.42674-3.53591-.03584-7.07098-.21253-10.59121-.54915-3.01752-.28855-6.51121-1.50264-9.47488-1.42239-11.95136.32364-24.77431-4.67147-35.971-8.37116-12.3538-4.08202-24.45166-8.93889-36.19692-14.53619-4.68284-2.23164-9.3089-4.58013-13.96163-6.8739-28.55299-14.07642-57.83482-26.87088-86.80203-40.07293-16.69661-7.61021-33.42146-15.15846-50.17409-22.64454-23.42715-10.46866-46.90492-20.79392-70.33719-31.25276-12.32192-5.49981-25.26977-10.36831-36.87881-17.29629-9.34115-5.50695-18.14591-10.7679-24.88118-19.48983-6.20953-8.04111-10.37125-17.69138-11.72185-27.77468-.52381-3.91061-.66582-8.23306,1.08836-11.88004,1.76482-3.66911,4.56445-6.70971,4.17623-11.09224.47436-1.02981,1.08303-1.96042,2.04247-2.60295.31092-.20823.7707-.54586,1.00135-.01702.52095,1.19443,1.0206.32035,1.3634-.02694,9.23-9.35111,20.53123-15.6611,31.91399-21.87849,41.92844-22.90176,85.02379-43.58352,128.44518-63.48009,21.40464-9.80804,42.77255-20.05773,64.57422-28.91919,39.49275-16.05213,77.18531-37.3914,120.22701-42.23476,33.85718-3.80986,68.87598-.76877,101.20693,10.04329,33.6664,11.25866,65.6338,26.88799,97.4669,42.44881,34.24016,16.73745,69.8488,32.69883,104.48959,49.40325,17.54876,8.46233,34.982,17.17311,52.1393,26.40655,16.44342,8.84925,34.30834,17.18477,47.47875,30.71965,1.84031,1.8912,4.00296,3.4078,6.13654,4.94854Z"/><path class="uuid-cb278676-7181-437b-a1d0-d6beda0f8ac6" d="m424.66495,885.2784c-3.79559-1.33975-7.76933-2.03285-11.52021-3.62789-4.93161-2.09701-10.33857-2.91627-15.23596-5.19129-1.50532-.69914-3.07343-1.27957-4.42933-2.27145-1.36358-3.19939.18994-5.35822,3.74358-5.01955,4.45449.42451,8.8985.96381,13.27108,1.97314,5.36249,1.23768,10.87182,2.11242,16.00125,4.0077,7.12387,2.63209,14.46188,3.04172,21.85263,3.5393.63957.04312,1.32575.00961,1.88561.29783,5.45677,2.80957,11.32532,1.72348,16.9546,1.35504,5.1804-.33902,10.34563-.68801,15.5394-.7374,9.61729-.09146,19.07409-1.63693,28.52854-3.22934,5.04232-.84926,10.17032-1.54564,14.94826-3.26426,6.91105-2.48596,14.19015-3.78316,20.91241-6.86057,5.1233-2.34527,8.40835-6.50285,11.58305-10.83545,1.08314-1.47814.15487-2.21332-1.23877-2.50248-2.66118-.55219-5.29423-1.22736-7.94404-1.80955-3.47454-.76348-6.61608-2.14852-9.77978-3.7398-3.68291-1.85232-7.22143-3.68174-9.67864-7.16221-1.01669-1.44006-2.70483-2.22428-4.05347-3.34629-3.70336-3.0808-6.76269-6.7957-9.88894-10.42102-1.38461-1.60564-1.69376-3.99861-3.32524-5.4999-4.57508-4.2099-7.09182-9.54064-8.65263-15.43893-.85889-3.24562-3.13457-5.94674-3.69035-9.32496-.84401-7.58936-2.7455-15.04102-2.97302-22.70478-.0307-1.03471-.74012-1.51717-1.17467-2.23887-.80932-3.64189-.46806-7.30447-.21757-10.96834.32942-1.16344.42019-2.34604.41972-3.55553-.01488-38.54121.00035-77.08248-.01693-115.62328-.01084-1.2515-.01348-2.50342.00012-3.75551.02004-25.42605.00328-50.85187.00563-76.27143-.34056-8.65201.65135-17.23477,1.60189-25.80697,2.77438-25.01977,10.67863-48.52175,21.86587-70.9149,6.81964-13.65082,16.05671-25.56352,28.26715-34.97309,2.53279-1.95182,4.9607-4.03506,7.18012-6.35326,1.6129-1.6846,3.42093-3.15647,5.53429-4.16323,9.75065-4.64508,19.05715-10.15526,28.78273-14.83834,18.01011-8.67229,36.15071-17.05951,54.55464-24.87958,12.87632-5.47134,25.5796-11.34196,38.29062-17.19343,15.8327-7.28859,31.70659-14.4907,47.47501-21.91556,8.74668-4.11855,17.55066-8.09938,26.38892-12.01005,12.77934-5.65441,25.41758-11.6228,38.18825-17.2909,10.4487-4.63746,21.01999-9.00243,31.41994-13.75579,5.09014-2.32646,10.12953-4.75828,15.49208-6.44212,4.54028-1.42567,9.17454-2.15657,13.91903-2.21317,3.19867-.03817,6.41071.17238,9.59415-.05098,4.37639-.30706,8.38883.70093,12.26206,2.59758,1.79683.87984,3.69902,1.51629,5.54543,2.28264.73819.30639,1.57312.50502,2.13845,1.06266,2.82448,2.78607,6.03663,4.95161,9.71931,6.44807.81489.33114,1.4762,1.05237,1.77088,1.89135.78957,2.24752,2.62675,3.77247,3.80448,5.66438,1.28084,2.05756,2.98179,3.90544,3.95388,6.14581,2.935,6.76424,2.51518,14.69582,2.58206,21.91058.33742,36.39469.10633,72.78332-.06094,109.19726-.1701,37.02966-.3402,74.05931-.5103,111.08897l-.25515,55.54448c0-36.80085-.34402-73.60515-.51602-110.40566-.17287-36.98682-.34574-73.97364-.51861-110.96046-.05445-11.65085-.10891-23.3017-.16336-34.95255-.02619-5.6033.52035-11.54881-.08974-17.11529-.18412-1.67991-.91965-3.12465-1.19749-4.77686-.44629-2.65396-.12036-5.24998-1.05499-7.85016-2.22769,2.33619-3.00595,4.91332-3.04422,7.73988-.10084,7.43912-.03158,14.87924-.03527,22.31895-.00111,2.24247-.04477,4.4763-.42417,6.69516-.32421,1.89642-.31753,3.79028-.19372,5.72364.23479,3.66706.28536,7.34517-.20005,11.01697-.4608,3.4853-.53146,6.96334-.29649,10.50981.34284,5.17397-.28097,10.37593-.53738,15.56068-.36294,7.33989-1.20672,14.66244-1.21111,22.01499-.0385,64.47826-.02695,128.95646-.00914,193.43472.00094,3.2802-.30036,6.55125-.19325,9.82518-1.51434,3.75621-1.29092,7.86094-2.3263,11.75057-.77334,2.90543-1.77621,5.74641-2.45164,8.67135-.66834,2.89418-1.66546,5.6417-2.81013,8.38283-1.37289,3.2877-2.28382,6.73354-3.83508,9.99814-3.32448,6.99668-6.79908,13.90529-10.75762,20.5548-3.76881,6.33076-8.13283,12.22682-13.623,17.22182-1.59228,1.44873-3.10187,2.96537-3.84668,5.11025-.46039,1.32598-1.77275,2.03783-2.79513,2.90367-4.32576,3.66363-8.63376,7.35029-13.07578,10.87518-3.35255,1.71316-6.5371,3.70576-9.63469,5.84027-1.38848.95672-2.7878,1.85947-4.49422,2.17969-.88005.16518-1.68749.58799-2.19288,1.3602-1.86592,2.85088-4.71483,3.65232-7.86698,4.37373-3.63861.83268-7.08239,2.53641-10.29829,4.42605-6.43291,3.78-13.2491,6.74139-19.9689,9.91652-7.81026,3.69047-15.46524,7.69371-23.2155,11.505-2.78757,1.37086-5.79868,2.3308-8.16465,4.47422-9.79923,3.93844-19.23505,8.67691-28.80857,13.10836-25.90446,11.99092-51.37501,24.88184-77.08768,37.27037-12.96251,6.24545-25.9392,12.46506-38.93968,18.63363-8.15486,3.86953-16.23988,7.89715-24.36199,11.82205-4.88171,2.35898-10.03566,4.38574-14.64122,7.42049-5.5074,3.629-11.71027,5.70328-17.91882,7.85812-4.34017,1.50645-8.36721,3.93059-12.79809,5.36133-2.05208.66258-4.01731,1.50814-6.21769,1.67795-1.59778.12334-3.1143.7517-4.52135,1.52361-1.36053.74619-2.75018,1.26141-4.32271,1.23937-.63986-.00896-1.28963.08391-1.85748.40822-7.23661,4.13385-15.44562,4.39178-23.35227,5.75971-16.43286,2.84285-33.02915,1.08873-49.5502,1.42711-5.86958.12023-11.65187.52781-17.34733,1.92762-2.33207.57311-4.36215.32004-6.21793-1.39072-1.68404-1.55244-1.77146-1.46121-2.34567.82412Z"/><path class="uuid-d4c4dca9-1fa3-450c-93cc-4dade2734962" d="m52.70773,555.40566c2.02646,2.50939,1.82,6.48676,2.36174,9.51113.69937,3.9044,1.58402,7.77438,2.60712,11.60627,2.11108,7.90682,4.82533,15.64158,7.8127,23.25634,2.61966,6.67747,5.45407,13.27626,8.7018,19.67185,5.34625,10.52807,11.79322,20.46671,18.71543,30.03256,24.84931,34.33941,60.8662,61.59614,97.49166,82.36832,6.03371,3.42203,12.16032,6.67996,18.36736,9.77638,18.52819,9.24289,37.77542,17.04229,57.51299,23.29989,33.82936,10.72526,70.41764,15.44717,105.13567,5.8155,38.54466-10.69327,68.84415-38.39133,83.14696-75.65617,3.09309-8.0588,5.41035-16.41589,6.89498-24.91956.21867-1.25252.42273-2.51997.89732-3.69954.27826-.69158.64679-1.34542.9001-2.04652.43462-1.20289.51538-2.49992.60128-3.77604.47229-7.01644,1.22249-14.01435,2.24944-20.9713.48494-3.28516-.95969-10.50933,3.7508-8.84103,2.81476,1.00488,4.18566.27176,4.92086-2.65588.3695-1.47152.52173-2.99713,1.06275-4.42564,1.61645-4.2682,5.24732-5.99502,9.39035-4.28238,2.66909,1.10332,5.1894,1.98211,8.00585.38027,1.30486-.74221,1.6596.46553,1.75505,1.45594.21499,2.23037.09627,4.47316.08526,6.70998-.00727,1.47615.21751,2.86195,1.03966,4.1141.64285,2.27631.33651,4.61039.3344,6.91248-.01131,12.47133.32315,24.9525-.0685,37.41211-.79626,25.32855-.08895,50.65693-.41234,75.98244-.0549,4.30137-1.75546,7.90189-5.43685,10.38791-2.45873,1.66031-4.06621,4.08633-4.36889,6.88904-.61007,5.64879-3.14362,10.39412-7.01588,14.12238-8.05534,7.75588-14.26316,17.02307-21.62346,25.33113-5.83682,6.5884-12.25055,12.61131-18.53934,18.75258-1.43515,1.4015-2.85182,2.7808-4.03281,4.40373-5.89846,8.10592-13.8938,13.12441-23.51466,15.50953-4.58405,1.13637-8.82575,3.3549-13.54741,3.99797-6.80242.92643-13.59282,1.98838-20.48536.94254-.55097-.08367-1.11821-.0474-1.67727-.03275-3.44369.09018-6.78519-.06979-10.08884-1.44703-2.94141-1.22619-6.28713-.99439-9.39176-1.75031-.84747-.85465-1.7968-1.48811-3.00053-1.82572-6.79471-1.90529-12.95234-5.42309-19.56705-7.79033-3.76371-3.87047-9.2395-4.38357-13.75443-6.83572-3.15689-1.71451-6.66683-3.29186-10.3817-4.02691-2.67023-.5284-4.72102.02766-6.19912,2.37334-.25436.40365-.5648.77719-1.03867.9576-6.19566-2.36057-12.27053-5.02148-18.27297-7.81676-1.54487-.71941-3.2754-1.4434-4.54505-2.7559-.23403-.24187-.50105-.42129-.83381-.39533-2.24462.17514-3.9337-1.20064-5.75725-2.1215-5.77881-2.9182-11.49601-5.95846-17.27699-8.87221-1.48575-.74883-3.31206-.92771-4.6439-1.8542-2.85173-1.98387-6.38041-2.49322-9.18663-4.55338-.91772-.67371-2.32901-.63738-3.34487-1.22115-7.98357-4.58812-16.66871-7.67045-24.91467-11.70018-26.42722-12.91494-52.88103-25.77516-79.13567-39.03879-8.20172-4.14346-16.53226-8.05928-24.23482-13.13068-2.94255-1.93734-5.78573-4.00664-8.47695-6.27902-2.06926-1.74715-4.02294-3.60908-6.38107-5.02447-1.4393-.86391-3.005-1.89428-2.95963-4.01924.00618-.28945-.49058-.59912-.7705-.88371-10.39209-10.56562-18.78152-22.61971-26.16345-35.40141-7.29954-12.63896-13.08304-25.95111-17.59791-39.83783-1.75497-5.39789-3.60864-10.74844-4.61768-16.35064-1.14677-6.36691-2.31824-12.72937-3.47897-19.09377-.32677-5.88721-.84172-11.77254-.84463-17.66707-.03568-72.35525-.11739-144.71071.07003-217.06547.03103-11.97882.50787-23.97267.24313-35.94914-.22077-9.98701-.29344-19.97024-.33317-29.95644-.00413-1.03837-.0683-2.08676.14793-3.10884.18123-.85658.33484-1.80557,1.58353-1.68914,1.05365.7897.99397,1.97572.96125,3.06782-.27805,9.28031.55086,18.53493.54381,27.81354-.05901,77.75317-.0288,155.50646-.05226,233.25967-.00088,2.90766.27216,5.69707,1.30588,8.45959,1.86253,4.97748,1.62651,10.21863,1.60596,15.42164-.00682,1.72559-.20661,3.49377.61756,5.52609,1.56722-3.00645,3.04076-5.53406,2.98624-8.84695-.08981-5.45742-.29455-10.86598-1.61875-16.18594-.35167-1.41287-.40193-2.85551-.13282-4.28865,1.05031-5.59365,1.48033-11.24836,1.70156-16.92463.00623-.15996.0074-.32051.02638-.47912.10414-.87012.05895-2.03877.9925-2.25785.83217-.19529,1.17057.90773,1.58412,1.57107.54798.87902.89402,1.88027,1.60788,2.65951Z"/><path class="uuid-30f41eee-6223-4f62-9952-5383895921ca" d="m495.74512,632.20795c-1.33434-.30832-1.40325-1.38604-1.41713-2.4348-.03158-2.39543.00264-4.79162-.01922-7.18729-.00715-.78709.13911-1.58912-.1984-2.5585-1.33024.88412-2.58623,1.81225-4.3097,1.6551-1.55683-.14203-2.91533-.70969-4.31196-1.30775-1.43685-.61541-2.84405-1.28174-4.55844-.76072-2.90321.88219-4.13661,3.06088-4.81023,5.72514-.29107,1.15113-.35796,2.35734-.61572,3.51873-.66711,3.00568-2.97906,4.12131-5.77456,2.81473-.64312-.30064-1.26136-.65437-2.15503-1.12172-.26556,1.74633-.15173,3.37887-.12235,4.98914.04266,2.33361-.00366,4.62762-1.1851,6.73957-.32529.58148-.26898,1.23756-.27062,1.87541-.00264,1.03348.03179,2.03074-.62683,2.97521-.57761.82822-.40539,1.84518-.10319,2.77588.20233.62309.4395,1.31514.15364,1.87008-1.36396,2.64744-.72023,5.47764-.85661,8.23371-.05122,1.03458.02345,2.0753-.0244,3.11025-.04311.93247-.17032,1.61592-1.06305,1.86279-1.53084-1.70908.13309-8.33561.27169-10.78945.22867-4.04858.34116-8.10288.45666-12.15591.70192-24.63153,2.09559-49.36061,1.85783-73.9963-.06577-6.81526-1.39034-13.2506,4.65325-17.86576,2.06628-1.57775,4.50251-2.41395,6.9315-3.1824,2.66323-.84258,5.39378-1.45354,8.23602-1.18951,1.4496.13471,2.86066-.1108,4.25682-.48896,2.63258-.71291,4.16146-2.65084,4.16902-5.41027.02542-9.29395-.49115-18.36114.75508-27.60012,1.18983-8.82086,3.12819-17.53968,5.76987-26.03902,6.45446-20.76656,16.99505-41.68152,32.60786-57.05144,6.10648-6.0116,12.86723-11.2091,20.25485-15.56206,6.25976-3.68839,12.67668-7.08513,19.15589-10.37856,6.41698-3.26188,13.02544-6.02675,19.72919-8.62438,2.03327-.78788,4.06097-1.71923,6.03359-2.71594,5.63713-2.84824,11.25258-5.74453,16.95597-8.45499,9.08524-4.31769,18.18812-8.59875,27.41528-12.61386,7.10061-3.08971,14.11251-6.38271,21.17644-9.55737,7.13465-3.20651,14.29035-6.36601,21.42623-9.56985,5.38968-2.41986,10.76037-4.88203,16.14355-7.31654,8.14642-3.68411,16.30281-7.34622,24.44261-11.04486,6.03341-2.74151,12.05399-5.51136,18.06806-8.29512,11.01444-5.09824,22.02338-10.20867,33.02704-15.33012,3.4037-1.58417,6.78402-3.21864,10.1736-4.83302,7.06786-3.36618,14.09288-6.82635,21.2164-10.07045,5.07983-2.31334,10.17623-4.61127,15.4731-6.42457,1.41116-.48308,2.72411-1.20451,4.01532-2.04325,2.45146-1.59246,5.30624-2.33496,8.08929-3.24876,2.11219-.69352,4.33748-.94875,6.32879-1.67628,2.01528-.73629,3.91623-1.08633,5.98255-1.12383.54107-.00984,1.16136-.14206,1.60153-.43441,1.64443-1.09207,3.46628-.98982,5.29757-.9769,2.79946.01978,5.59986-.03554,8.39874.01096,6.04829.10043,11.79464,1.48184,17.40587,3.76614,2.46342,1.00286,4.44817,2.79902,6.96414,3.6307.35093.11602.62615.4827.91744.75379,1.81585,1.69017,3.64034,3.3726,5.44306,5.07673.87877.83071,3.326,3.90087,3.81583.93555.12554-.76-.14116-1.52262-.37376-2.25696-.50427-1.59201-.86717-3.27158-.64406-4.92657s1.11861-3.29063,2.60421-4.05337c1.38001,4.67751,2.23329,9.5102,2.53854,14.37747.40032,6.38304,5.50524,14.10563,2.58102,20.545-2.40923-.27498-3.92029-4.94746-4.99638-6.83838-1.54759-2.71945-3.10978-5.46427-5.34112-7.69391-1.56486-1.56381-3.44057-2.77404-5.30061-3.97175-5.02153-3.23345-10.16834-6.54859-15.96188-8.2129-6.1666-1.77147-12.77597-1.16362-19.10482-1.05622-6.88099.11677-13.7336,2.09578-19.9655,4.91806-12.79651,5.79524-25.6007,11.56638-38.57674,16.95554-4.64194,1.92791-9.14108,4.19959-13.70439,6.31644-4.89566,2.27104-9.74075,4.65258-14.82058,6.5112-1.19072.43567-2.30298,1.10924-3.40997,1.74527-2.08149,1.19596-4.15853,2.42458-6.54173,2.88457-1.29578.25008-2.29109,1.12611-3.34376,1.69304-1.92949,1.03919-4.01257,1.47586-5.96679,2.31841-2.05225.88482-4.10731,1.77261-6.10771,2.76677-11.43106,5.68137-23.0832,10.88666-34.69215,16.18617-5.44816,2.4871-10.83807,5.10161-16.28394,7.59372-8.05595,3.68648-16.16833,7.25118-24.19856,10.99245-4.99492,2.32714-10.02623,4.56557-15.07799,6.76195-5.26979,2.29122-10.54433,4.57157-15.81313,6.86508-3.51193,1.52874-7.04002,3.02285-10.52136,4.61868-10.08336,4.62202-20.17609,9.22538-30.20748,13.95817-6.56921,3.09937-12.99474,6.48861-19.35523,10.00793-4.47383,2.47538-9.09456,4.69037-13.69167,6.93565-2.2578,1.10276-4.26998,2.49703-6.00739,4.29231-3.00707,3.10729-6.44944,5.70337-9.75241,8.47011-3.29717,2.76176-6.50042,5.62603-9.30175,8.95503-2.77462,3.29739-5.57519,6.55424-8.073,10.07511-4.59032,6.47057-8.4796,13.34045-11.7896,20.53368-3.77396,8.20151-6.85181,16.68357-9.7162,25.23554-2.7602,8.24086-5.07731,16.62146-6.74622,25.15014-.76116,3.88969-1.35532,7.82783-1.68251,11.80687-.41697,5.07205-1.04294,10.1267-1.49243,15.20057-.33997,3.83777-.22325,7.65486-.37777,11.4784-.43408.91412-.21135,1.88625-.21299,2.82779-.04037,22.96746.0409,45.93498-.05027,68.90244-.28923.55822-.70145.53221-1.16851.24598Z"/><path class="uuid-aca893d8-9028-4676-8764-82c350e8aa21" d="m501.0339,796.36882c-1.39019,2.32416,5.56495,14.04678,6.90545,16.14316,4.88077,7.63295,10.46703,14.81593,16.66082,21.42797,8.14672,8.69685,17.60868,16.04897,29.81373,17.43512,2.11137.23978,5.90853.60936,5.54126,3.65948-.7144,5.93155-11.5867,11.22045-16.31984,13.22259-6.60643,2.79456-13.67545,4.20857-20.63276,5.82673-11.17114,2.59826-22.49723,4.56748-33.91351,5.6975-27.003,2.67286-52.58545-.68965-78.6164-7.86857-4.54049-1.25219-8.96603-1.41799-13.63649-2.05383-2.44197-.33246-3.15426.44414-3.31712,2.89008-.03188.47836-.02722.95912-.03952,1.43877-2.65986-.84322-5.30899-1.72266-7.98505-2.51051-.9748-.28699-1.55791-1.37221-2.41153-1.45102-1.93863-.179-3.27807-1.58707-5.06014-2.12842-1.51086-.45891-3.10759-1.11135-4.55184-1.92968-7.61383-4.31381-16.71635-5.78884-22.14605-13.35669-.27115-.37792-.53601-.7854-.5897-1.24742-.11025-.94884.74213-1.79154,1.66919-2.02176s1.89908-.0084,2.83051.20347c16.72721,3.80486,34.16828,4.35666,51.12066,1.77314,17.67537-2.69371,33.28813-9.61508,49.51814-16.70571,13.7503-6.00729,27.2316-12.93965,39.03612-22.29258,2.94885-2.33643,5.21644-5.01781,4.97707-8.96635-.14813-2.4423-.2069-4.94842,1.14701-7.18547Z"/><path class="uuid-1927776b-fb5f-47b5-882c-d0c245a1da5f" d="m52.70768,555.40561c-2.1798-.28928-2.30397-2.33197-3.0772-3.88424-.45376.55113-.27127,1.0302-.27856,1.46695-.10234,6.13559-.53211,12.23461-1.82162,18.25424-.23318,1.0885-.20773,2.21877.11467,3.32426,1.88184,6.45275,1.77442,13.07895,1.69784,19.70191-.00656.56754-.03839,1.12547-.41341,1.59059-1.33198,1.65199-2.1326,3.53473-2.47461,5.62301-.04999.30521-.0893.65854-.49868.71396-.46569.06316-.80031-.2482-.96569-.57773-.61309-1.22139-.92475-2.53283-.92645-3.90686-.00335-2.71998-.04718-5.4409.0091-8.15971.09059-4.37555-.74016-8.5677-2.45135-12.57545-.46616-1.09178-.43422-2.17834-.43451-3.28939-.00576-22.07988-.0067-44.15982-.00688-66.23971-.00049-59.59972.07865-119.1997-.1014-178.79889-.02214-7.32809-.22453-14.68228-.45246-22.02161-1.28799-3.32083-.79695-6.79207-.43953-10.12734.43092-4.02105,1.32272-8.02395,2.71159-11.86559.41406-1.14527.49942-2.3388.70744-3.51369,1.3312-7.51857,4.03207-14.60323,6.81059-21.66621,2.07184-5.26664,4.10059-10.60462,7.02763-15.4189,2.97741-4.89712,6.00401-9.78593,9.19848-14.5633,4.58406-6.8555,10.24135-12.84318,15.19748-19.39036.98747-1.30449,2.75343-1.64594,3.58008-3.09735,1.61614-1.02621,2.86013-2.46098,4.18306-3.80922,1.15485-1.17694,2.22509-2.45791,3.80963-3.10806.05074,2.38888-1.34699,4.23108-2.47904,6.11038-2.49212,4.13713-5.30616,8.06558-8.09093,12.00762-2.55751,3.62034-5.86981,6.66821-8.29581,10.2956-1.8129,2.71067-3.04181,5.81094-4.63798,8.64802-2.65559,4.72014-5.06833,9.57683-7.2273,14.54376-4.99476,11.49091-10.69148,25.50977-10.48897,38.2447.0236,1.48397.41456,2.84089,1.14647,4.10186.40584.69917,1.03307.85767,1.5134.1265.75691-1.1522,1.80212-2.03099,2.67768-3.06593,3.50203-4.1395,7.76764-7.64557,12.74466-9.85643,6.55941-2.91378,13.75325-2.45261,20.74746-2.29514,1.16504.02619,2.31732-.45557,3.62374-.12288-.63878,2.36774-8.18365,2.73482-10.25914,3.2362-7.17704,1.73377-13.82861,3.73199-19.6118,8.48766-5.17515,4.25566-8.99962,9.87203-11.70616,15.96253-1.99989,4.50032-3.22819,9.18797-3.22998,14.10993-.0253,69.83751-.01637,139.67505-.02386,209.51256-.0002,1.84482-.0856,3.68004,1.03625,5.30795.47702.69217.42201,1.5218.42092,2.3243-.00337,2.47992-.00866,4.95984.00506,7.43965.00307.55559-.12969,1.27875.15802,1.63863,1.79929,2.25076,1.16446,4.87242,1.27348,7.38141.01734.39914-.00008.79986-.00142,1.19982Z"/><path class="uuid-e2a3ebbc-8845-41bb-93b9-af453b6d5625" d="m754.95649,769.95435c.83047-1.50609,2.30322-2.19281,3.76998-2.80617,5.60613-2.34434,10.95034-5.22627,16.35578-7.9735,7.82848-3.97881,15.85309-7.53873,23.75335-11.36221,2.4432-1.18236,4.78966-2.53295,7.09768-3.96533,1.27311-.79014,2.63762-1.41041,4.12331-1.84857,1.57341-.46395,3.01474-1.39049,4.49117-2.15848.42189-.21949.80997-.66586,1.28459-.55687,2.23232.51229,3.8969-.9774,5.81092-1.57377.80528-.25084,1.51446-.82928,1.72242-1.55883.50867-1.78441,1.95422-2.34176,3.40962-2.56963,1.27486-.19957,2.22476-.80279,3.20606-1.46338,3.37464-2.2715,6.71394-4.59937,10.44208-6.28248.13788.08473.28261.15264.438.18533,1.54856.32619,3.40124.37418,3.78375,2.33221.36341,1.86023-1.17625,2.86506-2.41056,3.84035-1.43958,1.13736-2.87745,2.29986-4.4133,3.29473-1.47948.95836-2.08378,2.11699-1.63318,3.81615-5.03201,4.0016-10.66316,7.00781-16.40318,9.8233-1.935.9491-3.96094,1.71311-5.89325,2.66713-1.83152.90422-3.58001,1.97484-5.39185,2.92096-2.23355,1.16625-4.43217,2.43516-6.76134,3.37277-2.48123.99891-4.80202,2.31264-7.21253,3.43635-4.96439,2.31439-9.72112,5.06941-14.61971,7.53076-26.9079,13.52021-54.11787,26.41535-81.36352,39.23602-3.0342,1.42781-6.12693,2.71998-9.19833,4.05697-1.76472.76822-3.53167,1.7083-5.27612,2.56137-1.57733.7715-3.02957,1.98504-4.9348,2.14664-.74955.06357-1.47374.56473-2.1855.91535-15.83686,7.80141-31.58389,15.78609-47.53759,23.34914-11.76359,5.57666-23.29209,11.64838-35.27254,16.7666-2.19575.93809-4.34158,2.01885-6.67521,2.61035-2.11975-.07266-2.69739-.97377-1.60593-2.76316,1.52489-2.50002,3.52048-4.48207,6.28666-5.71014,3.1208-1.38557,6.04888-3.16758,8.98534-4.91314.41111-.24439.77639-.67951,1.23139-.7217,3.2483-.30082,5.43796-2.96736,8.47046-3.74303.69922-.17883,1.29719-.62871,1.82004-1.13238,1.5945-1.53645,3.50489-2.51713,5.60068-3.13729,2.93031-.86707,5.67375-2.15139,8.39381-3.52283,11.85798-5.97908,23.813-11.76826,35.60759-17.86945,11.6478-6.02531,23.04763-12.52312,34.72238-18.50244,5.74031-2.93994,11.79031-5.16492,17.29085-8.71477,5.61849-3.62607,12.5326-4.78383,18.29811-8.31961,4.66046-2.85809,9.88437-4.46877,14.81571-6.72674,2.78223-1.27389,5.39741-2.78256,7.5767-4.96658Z"/><path class="uuid-82a26cb3-5b68-470d-af79-e67dca93dd2d" d="m754.95649,769.95435c-.27224,1.58121-1.49829,2.51467-2.67999,3.19518-2.69575,1.55227-5.43743,3.16705-8.36686,4.12687-2.36697.77549-4.59641,1.74363-6.80371,2.82463-2.62778,1.28684-5.25485,2.57941-7.83669,3.95502-2.31693,1.23451-4.62184,2.46645-7.16477,3.19236-2.3089.65906-4.52235,1.55848-6.64122,2.70064-1.33293.71836-2.6995,1.34162-3.86074,2.36848-2.49898,2.20992-5.63555,3.20297-8.67718,4.36658-3.96411,1.51676-7.64848,3.62121-11.42233,5.52996-3.12859,1.58221-6.15265,3.37072-9.2274,5.05969-18.05811,9.91946-36.56766,18.99551-54.98145,28.22619-3.07627,1.54295-6.18259,2.97463-9.48205,3.96773-1.78312.5366-3.40944,1.3377-4.64065,2.80014-.20122.239-.44527.4848-.72254.61008-2.29677,1.03781-4.77009,1.72307-6.66589,3.54486-.2931.28172-.90255.33357-1.36229.32396-1.3893-.02871-2.45638.56631-3.37803,1.53422-.7393.77637-1.62749,1.24998-2.71254,1.401-3.55692.49682-8.91641,4.73354-11.28793,7.41329-.5244.59255-1.03804,1.2715-1.08029,2.06165s.61681,1.65351,1.39759,1.52516c-2.64598.43498-6.30634,3.71487-8.87395,4.87627-3.07147,1.38931-6.40033,2.21895-9.38322,3.7854-37.52099,19.70396-81.9111,25.77893-123.66248,19.80733-2.51283-.3594-5.36116.01908-7.7812-.61232-.70385-1.12008-1.93899-.60492-2.89746-.94131-.15718-.03416-.31439-.06832-.47158-.10248-.40888-.33738-1.01523.0174-1.40137-.39973-.17262-.02502-.34522-.05004-.51784-.07512-.45227-.32449-1.04822-.04553-1.50339-.35789-.29963-.04629-.59926-.09264-.89889-.13898-.46624-.29115-1.05079-.04436-1.51742-.33375-.29433-.05004-.58868-.10008-.88301-.15006-.41858-.31025-1.01318.02678-1.40498-.38197-.5237-.0293-1.10687.1766-1.49764-.37887-.19105-.34758-.37862-.69686-.57359-1.04197-.33508-.59303-.5597-1.24687.07319-1.71926.5418-.40436,1.28491-.36275,1.81523.01219.71073.50238,1.31562,1.15898,1.94499,1.77094,1.1783,1.1458,2.44511,1.53252,4.13758,1.09107,5.80011-1.51295,11.68958-2.24432,17.71824-2.18186,12.31494.12773,24.6322.03111,36.94849.04318,3.19481.00311,6.3319-.48381,9.48334-.92566,5.03535-.70605,10.08811-1.32293,15.04547-2.46053,3.0782-.70629,6.34397-.72328,9.18708-2.36062.27259-.15697.67268-.14771.88134-.35127,1.5672-1.52836,3.48749-1.75137,5.53253-1.59592.49877.03785.90776-.21715,1.32432-.47854,2.33937-1.46789,4.83888-2.43908,7.65616-2.40158.31318.00422.65922-.02471.93705-.1529,6.808-3.14116,13.95591-5.60959,20.89167-8.33628,3.00473-1.18126,5.90509-2.60972,8.80137-4.03637,18.6587-9.19089,37.29877-18.43077,56.06451-27.38418.36054-.17197.73274-.31957,1.09175-.49453,6.46403-3.15023,12.90526-6.34805,19.39443-9.44549,13.7733-6.57445,27.45759-13.32979,41.16514-20.03859,5.73961-2.8091,11.44758-5.68881,17.22182-8.42918,9.08934-4.31373,18.17564-8.63426,27.28087-12.91418,6.42887-3.0218,12.85481-6.05414,19.34996-8.92828,2.23812-.99035,4.37252-2.36549,6.91844-2.56441Z"/><path class="uuid-26a71cac-5469-4f15-b44f-c369287ed0b4" d="m836.18817,739.30396c-1.52975-1.58678-1.52929-2.42021.17831-3.55629,1.85672-1.23551,3.44302-2.82352,5.37597-3.96428.73455-.43359,1.3375-1.14082,1.89645-1.8102,1.01224-1.21219.74873-2.1798-.70625-2.74225-.59047-.22828-1.21973-.359-1.83539-.51867-.46197-.11982-.60553-.46541-.67397-.87738,4.93867-4.15998,9.87411-8.32395,14.82198-12.47303.36974-.31002.86481-.55266.90888-1.05457.17919-2.04428,1.6773-3.19354,2.96423-4.48447,3.26729-3.27738,6.67556-6.42744,9.31066-10.27547,2.10997-3.08121,4.50336-6.01793,6.2174-9.30721,1.83088-3.5134,3.87961-6.92936,5.38364-10.63471.57072-1.40596,1.70947-2.66643,2.39627-4.10367,1.43542-3.00416,2.4626-6.19986,4.24414-9.04312.1237-.1974.24968-.45609.22858-.67189-.23468-2.39537,1.14507-4.25326,2.03918-6.27732.87296-1.97596,1.44473-4.05305,1.85473-6.16758.28747-1.48283.38339-3.01594,1.54136-4.17258.10793-.10781.24171-.29109.2195-.41297-.59451-3.25887,2.18485-5.91352,1.63458-9.1701-.105-.62174-.02168-1.27641-.01336-1.91578.01119-.86326-.12668-1.72225.97316-2.19586.66887-.28811.40167-1.13279.4755-1.74797,1.37114-6.84779,1.06931-13.78324,1.06052-20.70082-.00328-2.54221-.13149-5.01967,3.14277-5.85826,1.04529-.26771,1.05419-1.48846,1.18703-2.43773.81184-5.80037.50193-11.62295.32175-17.44113-.03217-1.04115-.19026-2.08061.35673-3.03615.36939-.64529.85655-1.21816,1.69247-1.07713.75161.1268.92681.80748,1.06374,1.43268.18897.86262.15176,1.74639.1527,2.62359.00516,4.78746.10061,9.57773-.03264,14.36145-.08836,3.17186.40689,6.17895,1.57657,9.10131.02057,1.12793.04113,2.2558.06176,3.38344-1.15287,4.70174-1.06374,9.48779-.97538,14.27531.03404,1.84271-.1135,3.66551-.68252,5.43832-.44363,1.38229-.34806,2.70293-.08444,4.17873.39927,2.23482.28548,4.63295-.64871,6.78668-.58098,1.33939-.92024,2.69912-1.21363,4.10437-2.16604,10.37473-6.002,20.14904-10.54064,29.69232-6.07419,12.77238-13.83963,24.42891-22.84711,35.29178-.15293.18439-.32632.35566-.45523.55559-1.94701,3.01881-4.79493,5.21461-7.14421,7.86094-2.05917,2.31943-4.87726,3.8175-6.67093,6.38947-.56832.81486-2.11067.62525-2.08788,2.03912.3102.73482-.286,1.01988-.72535,1.26762-3.22739,1.82004-5.97897,4.37666-9.32613,6.00721-2.2056,1.11287-4.41119,2.22574-6.61679,3.33867Z"/><path class="uuid-03da71ab-3ed3-4858-8ec6-63d93bc5f31d" d="m354.15415,856.28334c-.16055.03287-.32113.06568-.48145.09855-4.12076-1.27547-8.02431-3.09662-11.96691-4.81248-5.13159-2.23336-10.071-4.85871-15.05303-7.40402-4.04764-2.06795-8.32789-3.67541-12.4527-5.59916-4.04887-1.88836-8.03375-3.9143-11.89566-6.1701,1.18967-3.61025,3.22434-4.64367,6.88911-4.11568,2.57692.37131,4.78518,1.33975,6.91234,2.69959.32248.20613.74882.43195,1.09468.38877,1.76466-.22025,2.97431.82447,4.34053,1.65568,2.46025,1.49689,5.14044,2.506,7.93053,3.26531,1.2949.3525,2.97683.3641,3.23149,2.30262.04187.31881.43604.42363.7422.52775,6.4935,2.20834,12.4963,5.63906,19.06691,7.65416.68343.20965,1.38479.36047,2.07639.54398.9346.24803,1.59313.73271,1.53465,1.81998-1.19658.50309-2.46362.4977-3.72715.51463-.75108.01008-1.57089.16025-1.85795.84902-.36719.88096.40495,1.51213,1.00954,1.97385,1.3046.99645,2.88015,1.75037,2.60648,3.80754Z"/><path class="uuid-6a57e927-edac-4860-8542-83d9741dac35" d="m179.69538,461.58234c-.18939,5.25831-.84478,10.82732-2.05954,15.95959-2.37288,10.02523-7.77566,18.25257-14.25602,26.07052-9.76664,11.78173-29.57028,13.41144-42.96721,8.2026-29.66334-11.53338-40.58824-45.96663-35.80253-75.31027,1.87793-11.51457,6.6407-19.94913,13.28258-29.19762,9.54498-13.29034,29.06677-15.03188,43.41731-9.66003,16.88146,6.31925,28.56696,23.26442,34.12376,39.92326,2.31705,6.94634,4.551,15.97623,4.26165,24.01195Z"/><path class="uuid-daa0d228-5615-4c48-80f1-ea48214ec5b9" d="m355.15986,478.92942c38.47685-.66251,59.53857,47.10333,53.33199,79.85127-.17551.92604-.36916,1.84853-.5628,2.77095-.10337.49242-.20674.98483-.31011,1.47725-.79833,3.80297-2.6816,7.77937-4.34689,11.29688-8.02972,16.96077-26.0897,26.52968-44.68791,22.59362-14.11642-2.98756-26.10128-12.09418-33.70999-24.15961-7.88994-12.51139-11.3739-27.53911-10.73949-42.25395.97042-22.50773,10.88272-46.99344,35.69797-51.09758,1.76152-.29133,3.5417-.44808,5.32723-.47883Z"/><path class="uuid-29732ea1-d93f-4d05-bc2d-13fc11551a55" d="m201.40348,558.6979c-.55947-8.67036-.05229-17.71612,4.21147-24.2199,4.06823-6.20551,11.98769-5.63731,16.00379.18684,7.02328,10.18515,8.72651,21.26317,19.98546,28.28889,6.56379,4.09589,15.8813,5.03056,22.0046-.55852,1.20923-1.10373,2.14474-2.47122,3.01052-3.86077,2.14733-3.4464,5.18991-8.74625,9.97829-8.54965,8.15231.3348,12.40316,4.32533,13.20319,12.82271.54016,5.7368.65442,11.49182.26556,17.23998-1.48887,22.00813-3.73823,46.62013-18.46869,64.46139-8.69727,10.53397-23.46114,12.56536-34.7686,4.54767-11.96882-8.48663-18.68748-23.17906-23.79888-36.46809-4.9453-12.85719-8.43916-26.30434-10.12998-39.9823-.51365-4.1552-1.17814-8.97086-1.49674-13.90827Z"/><path class="uuid-7b8d7b0f-47d6-4126-ae70-bc414c225660" d="m136.51096,563.65808c-4.76042-.20325-9.46656-1.33239-14.07082-2.61613-8.10898-2.2609-17.35726-4.61944-23.71233-10.48356-4.68478-4.32286-7.22532-11.4011-4.94759-17.57661,1.48099-4.01531,4.83898-6.0065,8.68338-7.29862,11.40504-3.83333,27.21531.75716,37.80025,5.29651,3.96343,1.69971,7.83861,3.76745,10.95816,6.74502,3.323,3.17176,5.63711,8.22907,5.67987,12.82637.08875,9.54319-9.94955,12.89142-17.91499,13.12536-.82677.02428-1.65216.01683-2.47592-.01834Z"/><path class="uuid-d04a7950-12c1-4ea7-a11f-ed891933a2a2" d="m381.72607,648.8138c-8.63162-.19573-17.94022-2.76885-25.92299-5.94059-6.64394-2.6398-14.628-6.79689-17.1123-13.89567-2.6964-7.70485,1.91005-15.29397,9.48554-17.63508,12.5285-3.87156,26.66851-.43454,38.09051,5.24829,5.55277,2.76269,10.49659,5.56657,13.26919,11.28531,2.62892,5.42239,2.60197,11.97346-2.12403,16.23775-4.04984,3.65419-9.70138,4.83568-15.6859,4.69998Z"/><path class="uuid-1edbd8c7-e2e5-4e9e-ac3d-72818ef72c92" d="m769.75962,232.14396c-.00111.91649-.74762,1.37095-1.25348,1.95354-2.93734,3.38297-6.6455,5.69874-10.64429,7.60104-1.22142.58107-2.44554,1.1211-3.53911,1.96995-1.39153,1.08012-3.21789,1.3904-4.81855,1.86586-3.82664,1.13669-7.48605,2.73187-11.32752,3.80689-9.35631,2.61829-18.89795,3.72621-28.59127,4.06084-5.19497.17936-10.37484.17098-15.54165-.16374-13.49632-.87428-26.82253-2.73565-39.55461-7.62396-6.45287-2.47746-12.42399-5.80453-17.93889-9.98191-1.08542-.82219-6.95057-6.77735-7.24911-8.06454,1.25239-2.95644,9.23755.6488,11.46422-1.32945,1.89243-1.68135,4.11189-3.00448,6.40845-4.13836.92833-.45832,2.04756-.7292,2.7343-1.44524,4.35731-4.54342,10.27332-8.13285,15.96201-9.51302.98071-.23795,10.08553-5.94772,11-5,.54957,1.21421-8.12957,10.21696-8.39076,11.36417-.64643,2.83972-.88201,5.63505-.17063,8.53872.75726,3.09094,2.58556,5.32485,5.11533,6.97336,1.67601,1.09213,3.31923,2.21341,4.92516,3.40216,4.26239,3.15498,9.29689,3.84838,14.33825,4.02387,7.03044.24469,14.08268.26804,21.11128-.00155,5.97165-.22904,11.87703-1.7165,16.94496-4.75298,3.34979-2.0071,6.50868-4.93729,8.12404-8.87777,1.44837-3.53323.83282-7.07051-.12903-10.58739-.14719-.5381-16.92257-12.50496-16.8686-13.08257,3.38237-2.28771,24.75223,9.68794,27.24605,12.62288,2.03491,2.3949,4.66221,4.12354,6.9802,6.20001,2.73624,2.45112,5.5272,4.84266,8.2277,7.3345.84466.77941,1.80035,1.3033,2.90429,1.60406.91772.24999,1.89211.41127,2.53127,1.24063Z"/><path class="uuid-22685ce9-e9bf-4101-8334-00c9b08ecc06" d="m633.87011,232.14187c-.26736-.17337-4.6191-5.12684-4.67851-5.35449-.70582-2.70418-2.06202-4.52428-2.14069-7.42852-.0813-3.0014.68073-5.80628,1.86285-8.61862,2.43555-5.79434,7.12358-11.25621,12.02327-15.15183,7.18255-5.71068,15.92428-9.13596,24.77637-11.55286,15.43447-4.21408,31.62435-5.44987,47.56256-4.37387,9.86231.6688,19.74394,2.07454,29.2225,5.05143,13.61614,4.27637,27.86476,11.84035,33.04731,26.09404,1.66535,4.58101.82507,10.65585-1.33821,14.94424-.11532.2286-1.10078,2.29277-1.33745,2.39048-.43377.17909-.02861-2.04254-.31375-2.41526-1.13537-1.48411-2.00111-3.15222-2.96218-4.75472-8.23691-13.73444-23.30629-20.83246-38.23426-24.95644-11.36352-3.13922-23.76276-4.31815-35.50469-3.48099-11.14617.79468-22.55618,3.04528-33.02482,6.92077-13.27131,4.91312-24.7006,13.37954-31.29471,26.34619-.33253.65391,3.43486,6.43979,2.33441,6.34045Z"/><path class="uuid-ffeac84a-2756-46aa-b608-ca0587a0981c" d="m630.3261,227.33768c.45481-8.75842,18.77768-22.00239,23.81288-24.71975,4.56296-2.46251,9.39213-4.42086,14.3538-5.92631,8.13953-2.46967,16.59896-3.71575,25.05552-4.63105,3.41287-.36939,6.83644-.68655,10.26912-.7161,9.12079-.07851,18.81424,1.45635,27.58413,3.94505,5.64827,1.60288,11.32793,3.53602,16.6378,6.04995,10.35862,4.90422,19.04602,12.92575,24.45139,23.06667.36481.68442.72087,1.39826.79237,2.17053.17472,1.88699-2.02158,4.27866-3.413,5.56521-.64555.5969-.12087-.01277-1,0-.6684.0097-1.85068.07927-2.41295-.28226-4.60894-2.96349-8.41934-6.98853-12.60936-10.51959-19.67021-16.57667-45.58857-20.06139-69.94578-13.65356-5.32427,1.40069-10.55527,3.1339-15.73246,5.00072-4.76995,1.71998-10.02268,3.16919-14.28532,5.97379-3.71764,2.44602-7.65606,4.53076-11.30789,7.08449-2.59657,1.81579-5.10318,3.79128-7.14541,6.26147-.27493.33252-.56498.53815-.97802.59676-2.65639-1.47264-4.2433-3.02319-4.12683-5.26602Z"/><path class="uuid-0ce6c370-bdee-4a9a-a6dd-158d76484cf1" d="m906.14536,608.69439c-1.73654-1.91848-2.49031-4.09113-2.42498-6.75352.15276-6.22729.05707-12.46096.03457-18.69187-.00211-.58061.31272-1.51916-.52713-1.61578-.84964-.09791-.99466.88459-1.24814,1.52672-.11004.27879-.10735.63621-.05426.94014.90091,5.15566.23796,10.35018.3579,15.52418.0344,1.48465-.42693,2.97357-.52384,4.4898-.07272,1.13836-.64455,2.04457-2.08161,2.19967-2.12028.22881-2.13563.31986-2.14354,2.55369-.01693,4.79303-.00475,9.58623-.00586,14.37932-.00018.55916.10243,1.14686-.03264,1.6725-.58572,2.27906-1.24193,4.53996-1.8723,6.80742-.00381-8.87777-.01131-17.75543-.01125-26.63314.00029-60.06562-.02807-120.13134.07055-180.19681.00674-4.10774.13014-8.27584.84454-12.36847.02736-.15662.04201-.3196.03264-.47786-.24616-4.15711.77487-8.25943.51652-12.42296-.09826-1.58391.11813-3.16318.32087-4.75468.27915-2.19196.34935-4.4492-.14309-6.6738-.36487-1.6481-.2444-3.31969-.01342-4.99617.75137-5.45294,1.24937-10.9161.39253-16.4127-.26315-1.68814.41322-3.29906.5706-4.95709.10442-1.10057.28132-2.20389.28208-3.3179.00563-8.15804.05004-16.31651-.02004-24.47394-.02818-3.28125,1.15439-6.06272,2.97343-8.66458.17942-.25658.39939-.50481.65106-.68728.86305-.62578,1.55179-.35095,1.63868.72996.11473,1.42717.29503,2.85431.40677,4.26639.20063,2.53477.32978,5.07762.56258,7.61643.18059,1.96942-.23362,4.00403.85005,5.849.14819.25233.14532.62607.12709.93861-.28431,4.8769.50046,9.71394.49941,14.58507-.01711,82.70024-.00311,165.40049.0027,248.1007.00006.63967-.02115,1.27928-.03246,1.91895Z"/><path class="uuid-5c9b1ff9-8d13-4939-a0c5-9f6ae728e4fd" d="m354.46626,855.69475c-1.24294-1.17587-2.48588-2.35175-3.72881-3.52762-.49233-.46577-1.02993-1.1093-.78402-1.74084.13437-.34509.47189-.56419.80321-.72965,2.5632-1.28006,5.61679-.66559,8.42947-.12024,5.35627,1.03853,10.77831,1.72249,16.21794,2.14497,11.47352.89111,23.27932.57435,34.09241-3.36443,13.848-5.04428,24.75574-15.48086,34.62404-26.06292,10.84004-11.62407,21.8774-23.04454,31.35263-35.85485,10.38349-14.03826,19.9876-30.31215,19.86996-48.32696-.07693-11.78111-.10669-23.56253-.08947-35.34387.03445-23.56269.25708-47.12511.66788-70.6843.9327.42405,1.06663,1.67069,1.06614,2.69527,0,40.92181-.03179,81.84378-.04658,122.76552-.00035.94213.22946,1.91719-.21973,2.83014v11.02359c1.13054,5.61428,1.4738,11.17301-1.23707,16.4942-.28858.56643-.71809,1.07578-1.22266,1.46889-5.87215,4.57617-9.91419,10.82789-14.86417,16.24717-1.09629,1.20029-2.23252,2.27215-3.7018,2.97937-4.53184,2.18139-8.53855,5.21584-11.73652,8.97609-2.74174,3.22383-5.92363,5.90789-8.80365,8.89517-12.91932,13.40044-28.74882,22.80295-47.21257,25.44407-16.36559,2.34099-32.84059,2.59941-49.07079-.92685-2.61056-.56719-5.42154-1.20434-7.87462-.14646,1.45988,1.37346,2.64597,3.0368,3.46879,4.86453Z"/><path class="uuid-f2712fdf-658a-4154-abb8-145760fde5ce" d="m416.5707,850.41671c1.51655-1.76005,4.49111-1.78532,6.65916-2.29152,3.96119-.92486,7.43674-3.24283,10.7498-5.60292,13.58115-9.67467,25.94328-20.82369,37.91654-32.39541,6.19561-5.98782,12.30497-12.0642,18.50652-18.04592,2.84874-2.74777,5.30785-4.83431,6.1246-8.8705.34608-1.71027-.94122-10.93012.36285-11.68949.69921-.40715,1.27992.69425,1.352,1.50015.54608,6.10553,2.53005,12.81502,2.53005,18.83711.42935,2.4101.02231,4.56862-.14407,6.92446-.23339,3.30646.71536,6.35788-.87457,9.40573-1.64551,3.1544-4.92104,5.5974-7.70216,7.68076-18.67392,13.98877-40.91898,19.56728-61.365,30.14735-3.96258,2.05065-9.47949,5.59638-14.11571,4.4002Z"/><path class="uuid-f2712fdf-658a-4154-abb8-145760fde5ce" d="m496.72132,760.37498c-.00158-39.00398-.00498-78.00803.00686-117.01201.00029-.84639-.28495-1.77709.44914-2.50529.00398,39.08432.00926,78.16846.00434,117.2526-.00012.77402.22255,1.61871-.46033,2.26471Z"/><path class="uuid-f2712fdf-658a-4154-abb8-145760fde5ce" d="m497.17661,637.47805c-.97081-1.6892-.21891-3.53232-.47222-5.2858.01072-23.07053.01758-46.14088.04717-69.21129.00117-.92168-.32485-1.93002.42552-2.74957-.00029,25.74914-.00041,51.49787-.00047,77.24666Z"/><path class="uuid-d4c4dca9-1fa3-450c-93cc-4dade2734962" d="m49.40147,549.04648v-5.0949q.83618,2.13709,0,5.0949Z"/><path class="uuid-861b855f-b1c1-4246-95a7-d567781b8dda" d="m103.5163,429.0263c.63774-4.61016,2.16471-8.8481,5.37816-12.31687,4.55235-4.91411,10.31976-6.59127,16.77604-5.67346,5.35298.76096,9.36186,5.29687,10.59494,11.33827.46219,2.10082.62722,4.23179.67394,6.3777.07546,3.46523-1.24792,6.37292-3.57603,8.84757-2.35639,2.50471-4.93032,4.89281-7.83516,6.61277-2.99907,1.77574-6.40195,3.23411-10.11199,1.2469-2.80088-1.50023-5.73049-2.67369-8.09913-4.96866-3.32535-3.22195-4.59402-6.95947-3.80077-11.46422Z"/><path class="uuid-8b16433d-c63d-4785-a648-44904937e939" d="m130.70962,474.77987c.12267-6.01684,4.4332-12.13827,10.94048-12.23769,13.74166-.20912,15.82645,20.2659,4.28845,25.50333-8.44546,3.83364-15.384-5.62699-15.22893-13.26564Z"/><path class="uuid-f4d12b0b-21fa-42eb-b1a6-1ceffb8dee98" d="m103.5163,429.0263c.23872,1.72658.38141,3.47314.73619,5.17553.7339,3.52163,3.21961,5.88826,5.97314,7.77552,3.3226,2.27657,7.47654,4.64359,11.2601,2.93901.56247-.25341,1.18306-.34131,1.77597-.51173,1.63688-.47049,3.01743-1.55239,4.35223-2.61023,3.35032-2.65513,6.88316-5.57242,8.09097-9.67309.90784-3.08222.35434-6.38696.62326-9.58882-.15469,1.84177,1.37398,4.64826,1.52657,6.66015.15195,2.00343.07155,4.11734-.11949,6.11903-.72375,7.58359-4.58428,17.04057-11.73203,20.70141-7.51925,3.85111-16.37854,1.15858-20.08369-6.41721-2.60266-5.32157-3.98534-10.91657-3.30807-16.89987.14324-1.26548.31743-2.51678.90483-3.6697Z"/><path class="uuid-0db3cf0e-a53c-4b75-aaab-913495c02c28" d="m334.30113,525.56795c-.61989-1.42861-.141-7.97819-.09492-9.77374.11731-4.57049,1.42347-9.1536,3.91114-13.00405,2.71854-4.20773,7.47566-7.90155,12.52709-8.61596,4.90319-.69342,10.43129,1.87605,13.28738,5.90837,4.10307,5.7929,4.79934,15.70713.12498,21.3662-3.1125,3.76817-7.64975,7.54946-12.35704,9.09222-1.98752.65139-4.20007.73136-6.14236-.12032-2.32873-1.02115-4.10668-2.91116-6.06754-4.46396-1.98528-1.57214-4.29855,1.66282-5.18874-.38875Z"/><path class="uuid-ec7f1860-8e2f-4b7c-a129-2f87c0d454f8" d="m375.52809,573.71051c-1.12529.05959-2.30846-.09303-3.53322-.4991-4.90827-1.62736-7.75581-7.68013-8.22147-12.5084-.27768-2.87924.46443-5.52662,1.41016-8.04533,1.25564-3.34418,6.64099-5.84115,10.07785-4.89363,4.05353,1.11758,7.42104,3.35135,9.52024,7.11658,3.92172,7.0342-1.17379,18.40204-9.25356,18.82988Z"/><path class="uuid-d8ca211f-e3b1-495e-8eb1-cfc8f25ecd0d" d="m334.29947,517.57134c-.55069,1.11891-.17982,2.34217.5316,3.31077,1.06132,1.44498,2.69018,2.36692,4.01142,3.54186,2.82545,2.51259,6.40402,5.73128,10.45594,5.45924,5.46111-.36649,11.9375-5.12559,14.87095-9.58697,2.96239-4.5054,1.95469-9.24768,1.96551-14.32564,5.23635,10.8202.5224,26.94246-9.71885,33.19792-2.47715,1.51307-5.36463,2.47764-8.26085,2.28383-2.99276-.20026-5.82419-1.6369-8.02074-3.67942s-3.79585-4.6613-4.97269-7.42024c-1.27195-2.9819-2.29192-9.87882-.86228-12.78136Z"/><path class="uuid-c81c6cf9-e78f-4d20-a0ac-439f6f76c4e7" d="m233.10321,619.80436c-4.12915-6.19493-6.48803-13.13008-8.44704-20.23011-1.66875-6.04803-3.48787-12.06918-4.70116-18.23105-.62666-3.18257-1.10756-6.39869-1.30618-9.63834-.07974-1.3007-.86403-8.1419,1.98547-5.37754,8.02942,7.78956,16.03203,14.53915,27.51762,16.25277,8.80565,1.31378,18.03942-.44286,25.74755-4.89823.09469,6.67715-.61555,13.2561-1.37398,19.87563-.491,4.28502-1.71297,13.9481-3.22436,18.01047-2.52696-.11572-4.17208-7.12041-5.84879-8.54347-2.16062-1.83375-4.73054-2.62148-7.0954-3.11877-5.70366-1.19936-11.36306-.88559-16.4527,2.85773-3.55108,2.61182-5.49541,5.89236-5.97352,10.17604-.11145.99844.17683,2.12109-.82752,2.86488Z"/><path class="uuid-4e603c90-26d9-4524-8bcb-b756f1a67901" d="m233.10321,619.80436c.25599-1.72595-.07269-3.47059.42197-5.21476,2.60297-9.17797,12.99781-13.44913,21.90603-11.6787,2.31031.45915,4.53705,1.30724,6.60417,2.43655,2.61534,1.42881,7.17601.13076,9.26576,2.22051,1,1-5.9563,19.62317-6.79092,21.2436-3.61883,7.02575-10.12772,13.30712-18.28317,8.71175-3.00109-1.69103-5.31937-4.37921-7.25263-7.23029-1.9973-2.94552-5.37175-6.89119-5.8712-10.48865Z"/><path class="uuid-1776b60c-6650-4cab-9b70-cf11a1bc671d" d="m707.34393,203.10393c3.37567.10267,6.72429.42542,9.95324.97339,8.10288,1.37511,19.9547,5.61068,23.13234,14.05658,2.83557,7.53727-3.54174,14.86746-9.75424,18.29884-10.87257,6.00531-23.54557,6.40177-35.65381,5.311-9.4548-.85173-20.94108-3.42059-26.09408-12.3059-3.69925-6.37861-1.84155-14.89077,4.09283-19.09995,5.22212-3.70398,11.95286-4.88469,18.11656-6.02545,5.21161-.96455,10.7448-1.37466,16.20715-1.20852Z"/><path class="uuid-7b8fcb29-b725-4998-957a-cced8e63b81b" d="m700.85846,209.51818c3.08991.31428,6.93145,3.41428,5.4022,6.82768-1.66945,3.72634-7.91452,4.23385-10.98426,2.28776-4.07124-2.58256-1.30338-7.00052,2.07823-8.60653,1.01126-.48027,2.25641-.63526,3.50383-.50891Z"/><path class="uuid-1edbd8c7-e2e5-4e9e-ac3d-72818ef72c92" d="m552.75962,228.14396c-.00111.91649-.74762,1.37095-1.25348,1.95354-2.93734,3.38297-6.6455,5.69874-10.64429,7.60104-1.22142.58107-2.44554,1.1211-3.53911,1.96995-1.39153,1.08012-3.21789,1.3904-4.81855,1.86586-3.82664,1.13669-7.48605,2.73187-11.32752,3.80689-9.35631,2.61829-18.89795,3.72621-28.59127,4.06084-5.19497.17936-10.37484.17098-15.54165-.16374-13.49632-.87428-26.82253-2.73565-39.55461-7.62396-6.45287-2.47746-12.42399-5.80453-17.93889-9.98191-1.08542-.82219-6.95057-6.77735-7.24911-8.06454,1.25239-2.95644,9.23755.6488,11.46422-1.32945,1.89243-1.68135,4.11189-3.00448,6.40845-4.13836.92833-.45832,2.04756-.7292,2.7343-1.44524,4.35731-4.54342,10.27332-8.13285,15.96201-9.51302.98071-.23795,10.08553-5.94772,11-5,.54957,1.21421-8.12957,10.21696-8.39076,11.36417-.64643,2.83972-.88201,5.63505-.17063,8.53872.75726,3.09094,2.58556,5.32485,5.11533,6.97336,1.67601,1.09213,3.31923,2.21341,4.92516,3.40216,4.26239,3.15498,9.29689,3.84838,14.33825,4.02387,7.03044.24469,14.08268.26804,21.11128-.00155,5.97165-.22904,11.87703-1.7165,16.94496-4.75298,3.34979-2.0071,6.50868-4.93729,8.12404-8.87777,1.44837-3.53323.83282-7.07051-.12903-10.58739-.14719-.5381-16.92257-12.50496-16.8686-13.08257,3.38237-2.28771,24.75223,9.68794,27.24605,12.62288,2.03491,2.3949,4.66221,4.12354,6.9802,6.20001,2.73624,2.45112,5.5272,4.84266,8.2277,7.3345.84466.77941,1.80035,1.3033,2.90429,1.60406.91772.24999,1.89211.41127,2.53127,1.24063Z"/><path class="uuid-22685ce9-e9bf-4101-8334-00c9b08ecc06" d="m416.87011,228.14187c-.26736-.17337-4.6191-5.12684-4.67851-5.35449-.70582-2.70418-2.06202-4.52428-2.14069-7.42852-.0813-3.0014.68073-5.80628,1.86285-8.61862,2.43555-5.79434,7.12358-11.25621,12.02327-15.15183,7.18255-5.71068,15.92428-9.13596,24.77637-11.55286,15.43447-4.21408,31.62435-5.44987,47.56256-4.37387,9.86231.6688,19.74394,2.07454,29.2225,5.05143,13.61614,4.27637,27.86476,11.84035,33.04731,26.09404,1.66535,4.58101.82507,10.65585-1.33821,14.94424-.11532.2286-1.10078,2.29277-1.33745,2.39048-.43377.17909-.02861-2.04254-.31375-2.41526-1.13537-1.48411-2.00111-3.15222-2.96218-4.75472-8.23691-13.73444-23.30629-20.83246-38.23426-24.95644-11.36352-3.13922-23.76276-4.31815-35.50469-3.48099-11.14617.79468-22.55618,3.04528-33.02482,6.92077-13.27131,4.91312-24.7006,13.37954-31.29471,26.34619-.33253.65391,3.43486,6.43979,2.33441,6.34045Z"/><path class="uuid-ffeac84a-2756-46aa-b608-ca0587a0981c" d="m413.3261,223.33768c.45481-8.75842,18.77768-22.00239,23.81288-24.71975,4.56296-2.46251,9.39213-4.42086,14.3538-5.92631,8.13953-2.46967,16.59896-3.71575,25.05552-4.63105,3.41287-.36939,6.83644-.68655,10.26912-.7161,9.12079-.07851,18.81424,1.45635,27.58413,3.94505,5.64827,1.60288,11.32793,3.53602,16.6378,6.04995,10.35862,4.90422,19.04602,12.92575,24.45139,23.06667.36481.68442.72087,1.39826.79237,2.17053.17472,1.88699-2.02158,4.27866-3.413,5.56521-.64555.5969-.12087-.01277-1,0-.6684.0097-1.85068.07927-2.41295-.28226-4.60894-2.96349-8.41934-6.98853-12.60936-10.51959-19.67021-16.57667-45.58857-20.06139-69.94578-13.65356-5.32427,1.40069-10.55527,3.1339-15.73246,5.00072-4.76995,1.71998-10.02268,3.16919-14.28532,5.97379-3.71764,2.44602-7.65606,4.53076-11.30789,7.08449-2.59657,1.81579-5.10318,3.79128-7.14541,6.26147-.27493.33252-.56498.53815-.97802.59676-2.65639-1.47264-4.2433-3.02319-4.12683-5.26602Z"/><path class="uuid-1776b60c-6650-4cab-9b70-cf11a1bc671d" d="m490.34393,199.10393c3.37567.10267,6.72429.42542,9.95324.97339,8.10288,1.37511,19.9547,5.61068,23.13234,14.05658,2.83557,7.53727-3.54174,14.86746-9.75424,18.29884-10.87257,6.00531-23.54557,6.40177-35.65381,5.311-9.4548-.85173-20.94108-3.42059-26.09408-12.3059-3.69925-6.37861-1.84155-14.89077,4.09283-19.09995,5.22212-3.70398,11.95286-4.88469,18.11656-6.02545,5.21161-.96455,10.7448-1.37466,16.20715-1.20852Z"/><path class="uuid-7b8fcb29-b725-4998-957a-cced8e63b81b" d="m483.85846,205.51818c3.08991.31428,6.93145,3.41428,5.4022,6.82768-1.66945,3.72634-7.91452,4.23385-10.98426,2.28776-4.07124-2.58256-1.30338-7.00052,2.07823-8.60653,1.01126-.48027,2.25641-.63526,3.50383-.50891Z"/><path class="uuid-1edbd8c7-e2e5-4e9e-ac3d-72818ef72c92" d="m341.75962,226.14396c-.00111.91649-.74762,1.37095-1.25348,1.95354-2.93734,3.38297-6.6455,5.69874-10.64429,7.60104-1.22142.58107-2.44554,1.1211-3.53911,1.96995-1.39153,1.08012-3.21789,1.3904-4.81855,1.86586-3.82664,1.13669-7.48605,2.73187-11.32752,3.80689-9.35631,2.61829-18.89795,3.72621-28.59127,4.06084-5.19497.17936-10.37484.17098-15.54165-.16374-13.49632-.87428-26.82253-2.73565-39.55461-7.62396-6.45287-2.47746-12.42399-5.80453-17.93889-9.98191-1.08542-.82219-6.95057-6.77735-7.24911-8.06454,1.25239-2.95644,9.23755.6488,11.46422-1.32945,1.89243-1.68135,4.11189-3.00448,6.40845-4.13836.92833-.45832,2.04756-.7292,2.7343-1.44524,4.35731-4.54342,10.27332-8.13285,15.96201-9.51302.98071-.23795,10.08553-5.94772,11-5,.54957,1.21421-8.12957,10.21696-8.39076,11.36417-.64643,2.83972-.88201,5.63505-.17063,8.53872.75726,3.09094,2.58556,5.32485,5.11533,6.97336,1.67601,1.09213,3.31923,2.21341,4.92516,3.40216,4.26239,3.15498,9.29689,3.84838,14.33825,4.02387,7.03044.24469,14.08268.26804,21.11128-.00155,5.97165-.22904,11.87703-1.7165,16.94496-4.75298,3.34979-2.0071,6.50868-4.93729,8.12404-8.87777,1.44837-3.53323.83282-7.07051-.12903-10.58739-.14719-.5381-16.92257-12.50496-16.8686-13.08257,3.38237-2.28771,24.75223,9.68794,27.24605,12.62288,2.03491,2.3949,4.66221,4.12354,6.9802,6.20001,2.73624,2.45112,5.5272,4.84266,8.2277,7.3345.84466.77941,1.80035,1.3033,2.90429,1.60406.91772.24999,1.89211.41127,2.53127,1.24063Z"/><path class="uuid-22685ce9-e9bf-4101-8334-00c9b08ecc06" d="m205.87011,226.14187c-.26736-.17337-4.6191-5.12684-4.67851-5.35449-.70582-2.70418-2.06202-4.52428-2.14069-7.42852-.0813-3.0014.68073-5.80628,1.86285-8.61862,2.43555-5.79434,7.12358-11.25621,12.02327-15.15183,7.18255-5.71068,15.92428-9.13596,24.77637-11.55286,15.43447-4.21408,31.62435-5.44987,47.56256-4.37387,9.86231.6688,19.74394,2.07454,29.2225,5.05143,13.61614,4.27637,27.86476,11.84035,33.04731,26.09404,1.66535,4.58101.82507,10.65585-1.33821,14.94424-.11532.2286-1.10078,2.29277-1.33745,2.39048-.43377.17909-.02861-2.04254-.31375-2.41526-1.13537-1.48411-2.00111-3.15222-2.96218-4.75472-8.23691-13.73444-23.30629-20.83246-38.23426-24.95644-11.36352-3.13922-23.76276-4.31815-35.50469-3.48099-11.14617.79468-22.55618,3.04528-33.02482,6.92077-13.27131,4.91312-24.7006,13.37954-31.29471,26.34619-.33253.65391,3.43486,6.43979,2.33441,6.34045Z"/><path class="uuid-ffeac84a-2756-46aa-b608-ca0587a0981c" d="m202.3261,221.33768c.45481-8.75842,18.77768-22.00239,23.81288-24.71975,4.56296-2.46251,9.39213-4.42086,14.3538-5.92631,8.13953-2.46967,16.59896-3.71575,25.05552-4.63105,3.41287-.36939,6.83644-.68655,10.26912-.7161,9.12079-.07851,18.81424,1.45635,27.58413,3.94505,5.64827,1.60288,11.32793,3.53602,16.6378,6.04995,10.35862,4.90422,19.04602,12.92575,24.45139,23.06667.36481.68442.72087,1.39826.79237,2.17053.17472,1.88699-2.02158,4.27866-3.413,5.56521-.64555.5969-.12087-.01277-1,0-.6684.0097-1.85068.07927-2.41295-.28226-4.60894-2.96349-8.41934-6.98853-12.60936-10.51959-19.67021-16.57667-45.58857-20.06139-69.94578-13.65356-5.32427,1.40069-10.55527,3.1339-15.73246,5.00072-4.76995,1.71998-10.02268,3.16919-14.28532,5.97379-3.71764,2.44602-7.65606,4.53076-11.30789,7.08449-2.59657,1.81579-5.10318,3.79128-7.14541,6.26147-.27493.33252-.56498.53815-.97802.59676-2.65639-1.47264-4.2433-3.02319-4.12683-5.26602Z"/><path class="uuid-1776b60c-6650-4cab-9b70-cf11a1bc671d" d="m279.34393,197.10393c3.37567.10267,6.72429.42542,9.95324.97339,8.10288,1.37511,19.9547,5.61068,23.13234,14.05658,2.83557,7.53727-3.54174,14.86746-9.75424,18.29884-10.87257,6.00531-23.54557,6.40177-35.65381,5.311-9.4548-.85173-20.94108-3.42059-26.09408-12.3059-3.69925-6.37861-1.84155-14.89077,4.09283-19.09995,5.22212-3.70398,11.95286-4.88469,18.11656-6.02545,5.21161-.96455,10.7448-1.37466,16.20715-1.20852Z"/><path class="uuid-7b8fcb29-b725-4998-957a-cced8e63b81b" d="m272.85846,203.51818c3.08991.31428,6.93145,3.41428,5.4022,6.82768-1.66945,3.72634-7.91452,4.23385-10.98426,2.28776-4.07124-2.58256-1.30338-7.00052,2.07823-8.60653,1.01126-.48027,2.25641-.63526,3.50383-.50891Z"/></svg>