<svg width="43" height="47" viewBox="0 0 43 47" fill="none" xmlns="http://www.w3.org/2000/svg">
<path d="M4.51196 13C5.402 13 6.22462 13.4742 6.67065 14.2444L14 26.901L21.3341 14.2363C21.7772 13.4711 22.5944 13 23.4786 13V13C25.4355 13 26.6203 15.1617 25.5675 16.8113L17.15 30L25.552 43.1644C26.6115 44.8245 25.4192 47 23.4498 47V47C22.5804 47 21.7737 46.5473 21.3209 45.8051L14 33.8073L6.68396 45.7971C6.2281 46.5442 5.41608 47 4.5409 47V47C2.56667 47 1.36493 44.8263 2.4148 43.1544L10.675 30L2.39941 16.8211C1.35623 15.1598 2.55031 13 4.51196 13V13Z" fill="#7A7A7A"/>
<path d="M32.5698 20C32.1919 20 31.8549 19.9684 31.5589 19.9053V19.9053C31.1952 19.8355 31.019 19.4768 31.1215 19.1209L31.2061 18.8268C31.3763 18.2355 31.9867 17.9155 32.6018 17.9281C32.7216 17.9306 32.8369 17.9268 32.9477 17.9167C33.3634 17.8788 33.7318 17.6925 34.0531 17.358C34.3806 17.0297 34.6797 16.4962 34.9506 15.7576L35.3663 14.6212L30.5565 1.51627C30.2864 0.780255 30.8311 0 31.6152 0V0C32.096 0 32.524 0.304891 32.681 0.75936L36.4244 11.5909H36.5756L40.3194 0.758137C40.4762 0.3044 40.9035 0 41.3835 0V0C42.1674 0 42.7114 0.780991 42.4396 1.51623L36.8401 16.6667C36.563 17.4179 36.2197 18.0398 35.8103 18.5322C35.4009 19.0309 34.9254 19.4003 34.3837 19.6402C33.8484 19.8801 33.2437 20 32.5698 20Z" fill="#7A7A7A"/>
</svg>
