<svg width="22" height="24" viewBox="0 0 22 24" fill="none" xmlns="http://www.w3.org/2000/svg">
<path d="M12.418 23.4025C10.0326 23.4025 7.97514 22.9553 6.24571 22.0607C4.5461 21.1364 3.21921 19.8393 2.26504 18.1695C1.34069 16.4699 0.878518 14.4572 0.878518 12.1314C0.878518 9.86528 1.34069 7.8824 2.26504 6.18279C3.18939 4.48318 4.45665 3.15629 6.06681 2.20212C7.67696 1.24796 9.51075 0.770873 11.5682 0.770873C13.0889 0.770873 14.4456 1.02432 15.6383 1.53123C16.831 2.00831 17.8448 2.72394 18.6797 3.6781C19.5444 4.60245 20.1855 5.73553 20.603 7.07733C21.0502 8.41912 21.2739 9.92492 21.2739 11.5947C21.2739 12.1016 21.1248 12.4892 20.8266 12.7576C20.5284 12.9961 20.0811 13.1154 19.4848 13.1154H4.45665V10.3424H18.2324L17.4721 10.9685C17.4721 9.47765 17.2485 8.2104 16.8012 7.16678C16.3837 6.12316 15.7427 5.33299 14.8779 4.79627C14.0431 4.22973 12.9994 3.94646 11.7471 3.94646C10.3457 3.94646 9.15294 4.27446 8.16896 4.93045C7.21479 5.58644 6.48425 6.49588 5.97735 7.65877C5.47045 8.82166 5.217 10.1784 5.217 11.7289V11.9973C5.217 14.6212 5.82826 16.6041 7.05079 17.9459C8.30314 19.2579 10.1071 19.9139 12.4627 19.9139C13.3572 19.9139 14.2965 19.7946 15.2805 19.5561C16.2943 19.3175 17.2485 18.915 18.143 18.3484C18.6499 18.0503 19.0972 17.9161 19.4848 17.9459C19.9022 17.9757 20.2302 18.1099 20.4688 18.3484C20.7371 18.587 20.9011 18.8852 20.9608 19.243C21.0204 19.6008 20.9608 19.9735 20.7819 20.3611C20.603 20.7189 20.2899 21.0469 19.8426 21.3451C18.8288 22.0309 17.651 22.5527 16.3092 22.9105C14.9674 23.2385 13.6703 23.4025 12.418 23.4025Z" fill="#7A7A7A"/>
</svg>
