<svg width="51" height="39" viewBox="0 0 51 39" fill="none" xmlns="http://www.w3.org/2000/svg">
<path d="M7.17614 32.2833C5.53947 32.2833 4.30149 31.8112 3.46217 30.8669C2.64384 29.9017 2.23467 28.5168 2.23467 26.7123V11.1955C2.23467 10.6709 2.37106 10.2723 2.64384 9.99947C2.91662 9.7267 3.3048 9.59031 3.80839 9.59031C4.31198 9.59031 4.70016 9.7267 4.97294 9.99947C5.2667 10.2723 5.41358 10.6709 5.41358 11.1955V26.5235C5.41358 27.5726 5.62341 28.3595 6.04306 28.884C6.4837 29.3876 7.11319 29.6394 7.93152 29.6394C8.12037 29.6394 8.28823 29.6394 8.43511 29.6394C8.58199 29.6184 8.72887 29.5975 8.87575 29.5765C9.12754 29.5555 9.3059 29.6289 9.41081 29.7968C9.51573 29.9437 9.56818 30.2584 9.56818 30.741C9.56818 31.1817 9.47376 31.5279 9.28491 31.7797C9.09607 32.0105 8.79182 32.1574 8.37216 32.2203C8.18331 32.2413 7.98398 32.2518 7.77415 32.2518C7.56432 32.2728 7.36498 32.2833 7.17614 32.2833ZM18.3741 32.2833C16.8214 32.2833 15.4785 31.958 14.3454 31.3076C13.2333 30.6571 12.3625 29.7339 11.733 28.5378C11.1035 27.3418 10.7888 25.936 10.7888 24.3203C10.7888 23.0823 10.9671 21.9807 11.3239 21.0155C11.6806 20.0503 12.1842 19.2214 12.8346 18.529C13.5061 17.8156 14.3034 17.2805 15.2267 16.9238C16.1709 16.5461 17.22 16.3573 18.3741 16.3573C19.9058 16.3573 21.2278 16.6825 22.3399 17.333C23.4729 17.9835 24.3542 18.9067 24.9837 20.1027C25.6132 21.2778 25.9279 22.6836 25.9279 24.3203C25.9279 25.5373 25.7496 26.6389 25.3929 27.6251C25.0362 28.6113 24.5221 29.4506 23.8506 30.143C23.2002 30.8355 22.4028 31.3705 21.4586 31.7482C20.5353 32.1049 19.5072 32.2833 18.3741 32.2833ZM18.3741 29.8283C19.2344 29.8283 19.9898 29.6184 20.6402 29.1988C21.2907 28.7791 21.7943 28.1601 22.151 27.3418C22.5287 26.5235 22.7176 25.5163 22.7176 24.3203C22.7176 22.5157 22.3189 21.1519 21.5215 20.2286C20.7242 19.3054 19.675 18.8437 18.3741 18.8437C17.4928 18.8437 16.7269 19.0536 16.0765 19.4732C15.426 19.8719 14.9119 20.4804 14.5342 21.2987C14.1775 22.1171 13.9992 23.1243 13.9992 24.3203C13.9992 26.1038 14.3978 27.4677 15.1952 28.4119C15.9925 29.3562 17.0522 29.8283 18.3741 29.8283ZM36.4539 37.9486C35.3208 37.9486 34.2192 37.8332 33.1491 37.6024C32.0999 37.3716 31.1452 36.9939 30.2849 36.4693C29.9702 36.3015 29.7603 36.0917 29.6554 35.8399C29.5505 35.6091 29.519 35.3677 29.561 35.116C29.6239 34.8642 29.7393 34.6438 29.9072 34.455C30.0751 34.2661 30.2744 34.1403 30.5052 34.0773C30.757 34.0144 31.0193 34.0563 31.2921 34.2032C32.2153 34.7068 33.0861 35.0425 33.9044 35.2104C34.7438 35.3992 35.5201 35.4936 36.2335 35.4936C37.7023 35.4936 38.8039 35.116 39.5383 34.3606C40.2727 33.6262 40.6399 32.5351 40.6399 31.0872V27.8769H40.9232C40.6085 29.0309 39.9475 29.9437 38.9403 30.6151C37.9332 31.2866 36.7686 31.6223 35.4467 31.6223C34.0618 31.6223 32.8553 31.3076 31.8271 30.6781C30.799 30.0276 30.0016 29.1358 29.4351 28.0028C28.8686 26.8487 28.5853 25.5058 28.5853 23.9741C28.5853 22.82 28.7427 21.7813 29.0574 20.8581C29.3931 19.9349 29.8548 19.1375 30.4423 18.4661C31.0508 17.7946 31.7747 17.2805 32.614 16.9238C33.4743 16.5461 34.4185 16.3573 35.4467 16.3573C36.7896 16.3573 37.9541 16.693 38.9403 17.3645C39.9475 18.0359 40.598 18.9487 40.8917 20.1027L40.577 20.6378V18.0254C40.577 17.5008 40.7134 17.1022 40.9862 16.8294C41.2799 16.5566 41.6681 16.4202 42.1507 16.4202C42.6543 16.4202 43.0425 16.5566 43.3153 16.8294C43.588 17.1022 43.7244 17.5008 43.7244 18.0254V30.7096C43.7244 33.1016 43.1054 34.9061 41.8674 36.1231C40.6295 37.3401 38.8249 37.9486 36.4539 37.9486ZM36.2021 29.1358C37.1253 29.1358 37.9122 28.926 38.5626 28.5064C39.2131 28.0867 39.7167 27.4887 40.0734 26.7123C40.4301 25.936 40.6085 25.0232 40.6085 23.9741C40.6085 22.4003 40.2098 21.1519 39.4124 20.2286C38.6361 19.3054 37.566 18.8437 36.2021 18.8437C35.2998 18.8437 34.5234 19.0536 33.873 19.4732C33.2225 19.8929 32.7084 20.4909 32.3307 21.2673C31.974 22.0227 31.7957 22.9249 31.7957 23.9741C31.7957 25.5688 32.1943 26.8277 32.9917 27.751C33.789 28.6742 34.8592 29.1358 36.2021 29.1358Z" fill="#7A7A7A"/>
</svg>
