<svg width="18" height="24" viewBox="0 0 18 24" fill="none" xmlns="http://www.w3.org/2000/svg">
<path d="M14.657 0.538604C14.5467 0.623606 14.4442 0.71823 14.3506 0.821362L13.9055 1.31179L0.55208 19.5845C0.391002 19.8043 0.259606 20.071 0.165393 20.3691C0.0711811 20.6673 0.0159982 20.9911 0.00299467 21.3221C-0.0100088 21.6531 0.0194217 21.9849 0.0896065 22.2984C0.159791 22.6119 0.269356 22.901 0.412044 23.1492C0.554732 23.3974 0.72775 23.5999 0.921218 23.7451C1.11469 23.8903 1.32482 23.9753 1.53961 23.9954C1.75441 24.0154 1.96966 23.9701 2.17308 23.8619C2.3765 23.7538 2.56411 23.5849 2.72519 23.365L17.4443 3.20206H17.4463C17.6203 2.96555 17.7597 2.67467 17.8552 2.34876C17.9506 2.02285 18 1.66937 18 1.31179C18 1.20719 17.9958 1.10294 17.9874 0.999631V0.999631C17.2661 -0.081926 15.7797 -0.326456 14.7499 0.467026L14.657 0.538604Z" fill="#FF6DB3"/>
</svg>
