<svg width="46" height="33" viewBox="0 0 46 33" fill="none" xmlns="http://www.w3.org/2000/svg">
<path d="M45.9375 25.2812C45.9375 27.2952 45.1374 29.2267 43.7133 30.6508C42.2892 32.0749 40.3577 32.875 38.3438 32.875C36.3298 32.875 34.3983 32.0749 32.9742 30.6508C31.5501 29.2267 30.75 27.2952 30.75 25.2812V4.1875H17.25V31.1875C17.25 31.6351 17.0722 32.0643 16.7557 32.3807C16.4393 32.6972 16.0101 32.875 15.5625 32.875C15.1149 32.875 14.6857 32.6972 14.3693 32.3807C14.0528 32.0643 13.875 31.6351 13.875 31.1875V4.1875H12.1875C9.94974 4.1875 7.80362 5.07645 6.22129 6.65879C4.63895 8.24112 3.75 10.3872 3.75 12.625C3.75 13.0726 3.57221 13.5018 3.25574 13.8182C2.93928 14.1347 2.51005 14.3125 2.0625 14.3125C1.61495 14.3125 1.18572 14.1347 0.869257 13.8182C0.55279 13.5018 0.375 13.0726 0.375 12.625C0.37835 9.49316 1.62395 6.49055 3.8385 4.276C6.05305 2.06145 9.05566 0.81585 12.1875 0.8125H44.25C44.6976 0.8125 45.1268 0.99029 45.4432 1.30676C45.7597 1.62323 45.9375 2.05245 45.9375 2.5C45.9375 2.94755 45.7597 3.37677 45.4432 3.69324C45.1268 4.00971 44.6976 4.1875 44.25 4.1875H34.125V25.2812C34.125 26.4001 34.5695 27.4732 35.3606 28.2644C36.1518 29.0555 37.2249 29.5 38.3438 29.5C39.4626 29.5 40.5357 29.0555 41.3269 28.2644C42.118 27.4732 42.5625 26.4001 42.5625 25.2812C42.5625 24.8337 42.7403 24.4045 43.0568 24.088C43.3732 23.7715 43.8024 23.5938 44.25 23.5938C44.6976 23.5938 45.1268 23.7715 45.4432 24.088C45.7597 24.4045 45.9375 24.8337 45.9375 25.2812Z" fill="#7A7A7A"/>
</svg>
