<svg width="45" height="37" viewBox="0 0 45 37" fill="none" xmlns="http://www.w3.org/2000/svg">
<path d="M44.625 18.5C44.625 18.989 44.4307 19.458 44.085 19.8037C43.7392 20.1495 43.2702 20.3438 42.7812 20.3438H2.21875C1.72976 20.3438 1.26079 20.1495 0.915022 19.8037C0.569252 19.458 0.375 18.989 0.375 18.5C0.375 18.011 0.569252 17.542 0.915022 17.1963C1.26079 16.8505 1.72976 16.6563 2.21875 16.6563H42.7812C43.2702 16.6563 43.7392 16.8505 44.085 17.1963C44.4307 17.542 44.625 18.011 44.625 18.5ZM22.5 7.4375C23.2293 7.4375 23.9423 7.22123 24.5487 6.81605C25.1551 6.41086 25.6277 5.83495 25.9068 5.16115C26.1859 4.48734 26.2589 3.74591 26.1166 3.03061C25.9744 2.3153 25.6232 1.65825 25.1075 1.14255C24.5917 0.626839 23.9347 0.275639 23.2194 0.133356C22.5041 -0.00892706 21.7627 0.0640977 21.0889 0.343196C20.4151 0.622294 19.8391 1.09493 19.434 1.70134C19.0288 2.30774 18.8125 3.02068 18.8125 3.75C18.8125 4.72799 19.201 5.66592 19.8925 6.35746C20.5841 7.049 21.522 7.4375 22.5 7.4375ZM22.5 29.5625C21.7707 29.5625 21.0577 29.7788 20.4513 30.184C19.8449 30.5891 19.3723 31.1651 19.0932 31.8389C18.8141 32.5127 18.7411 33.2541 18.8834 33.9694C19.0256 34.6847 19.3768 35.3418 19.8925 35.8575C20.4083 36.3732 21.0653 36.7244 21.7806 36.8666C22.4959 37.0089 23.2373 36.9359 23.9111 36.6568C24.5849 36.3777 25.1609 35.9051 25.566 35.2987C25.9712 34.6923 26.1875 33.9793 26.1875 33.25C26.1875 32.272 25.799 31.3341 25.1075 30.6425C24.4159 29.951 23.478 29.5625 22.5 29.5625Z" fill="#FF6DB3"/>
</svg>
