<svg width="41" height="41" viewBox="0 0 41 41" fill="none" xmlns="http://www.w3.org/2000/svg">
<path d="M37.7915 5.72453L5.72897 37.787C5.39474 38.1213 4.94142 38.309 4.46874 38.309C3.99606 38.309 3.54274 38.1213 3.2085 37.787C2.87427 37.4528 2.6865 36.9995 2.6865 36.5268C2.6865 36.0541 2.87427 35.6008 3.2085 35.2666L35.271 3.20406C35.6049 2.86983 36.058 2.68194 36.5304 2.68173C37.0029 2.68152 37.4561 2.86901 37.7904 3.20295C38.1246 3.53689 38.3125 3.98993 38.3127 4.4624C38.3129 4.93487 38.1254 5.38807 37.7915 5.72231V5.72453ZM3.25303 14.5863C1.74986 13.0828 0.905507 11.0438 0.905716 8.91775C0.905925 6.79174 1.75068 4.75288 3.25415 3.24971C4.75761 1.74654 6.79663 0.902181 8.92265 0.90239C11.0487 0.902598 13.0875 1.74735 14.5907 3.25082C16.0939 4.75429 16.9382 6.79331 16.938 8.91932C16.9378 11.0453 16.093 13.0842 14.5896 14.5874C13.0861 16.0905 11.0471 16.9349 8.92107 16.9347C6.79506 16.9345 4.75621 16.0897 3.25303 14.5863ZM4.46874 8.92188C4.46931 9.65408 4.65043 10.3748 4.99604 11.0203C5.34165 11.6658 5.8411 12.2162 6.45016 12.6226C7.05922 13.029 7.75909 13.2789 8.48781 13.3503C9.21652 13.4217 9.95159 13.3122 10.6279 13.0317C11.3043 12.7512 11.901 12.3082 12.3653 11.7421C12.8296 11.1759 13.1471 10.504 13.2897 9.78578C13.4323 9.06761 13.3956 8.32534 13.1829 7.62472C12.9702 6.92409 12.588 6.28673 12.0702 5.76906C11.4472 5.14621 10.6534 4.72215 9.78927 4.55054C8.92516 4.37894 8.02956 4.4675 7.2158 4.80502C6.40203 5.14254 5.70666 5.71385 5.21767 6.44667C4.72868 7.17949 4.46804 8.04089 4.46874 8.92188ZM40.0937 32.0781C40.0933 33.9326 39.4499 35.7295 38.2731 37.1627C37.0964 38.5959 35.4591 39.5768 33.6402 39.9382C31.8213 40.2996 29.9334 40.0192 28.2981 39.1446C26.6628 38.2701 25.3814 36.8557 24.672 35.1423C23.9627 33.4289 23.8694 31.5225 24.4081 29.748C24.9467 27.9735 26.084 26.4407 27.6261 25.4107C29.1682 24.3807 31.0197 23.9173 32.8652 24.0994C34.7106 24.2815 36.4359 25.0978 37.7469 26.4093C38.4936 27.152 39.0855 28.0355 39.4883 29.0086C39.8911 29.9817 40.0969 31.025 40.0937 32.0781ZM36.5312 32.0781C36.5315 31.0479 36.1744 30.0494 35.521 29.2529C34.8676 28.4563 33.9582 27.911 32.9477 27.7098C31.9373 27.5086 30.8884 27.664 29.9797 28.1495C29.071 28.635 28.3587 29.4205 27.9643 30.3723C27.5698 31.3241 27.5176 32.3832 27.8165 33.3691C28.1154 34.3551 28.7469 35.2069 29.6035 35.7794C30.46 36.3519 31.4886 36.6097 32.5139 36.5089C33.5392 36.4081 34.4979 35.9549 35.2265 35.2265C35.6413 34.814 35.9702 34.3234 36.1942 33.783C36.4181 33.2426 36.5327 32.6631 36.5312 32.0781Z" fill="#7A7A7A"/>
</svg>
