<svg width="45" height="45" viewBox="0 0 45 45" fill="none" xmlns="http://www.w3.org/2000/svg">
<path d="M44.625 22.5C44.625 22.989 44.4307 23.458 44.085 23.8037C43.7392 24.1495 43.2702 24.3438 42.7812 24.3438H24.3438V42.7812C24.3438 43.2702 24.1495 43.7392 23.8037 44.085C23.458 44.4307 22.989 44.625 22.5 44.625C22.011 44.625 21.542 44.4307 21.1963 44.085C20.8505 43.7392 20.6562 43.2702 20.6562 42.7812V24.3438H2.21875C1.72976 24.3438 1.26079 24.1495 0.915022 23.8037C0.569252 23.458 0.375 22.989 0.375 22.5C0.375 22.011 0.569252 21.542 0.915022 21.1963C1.26079 20.8505 1.72976 20.6562 2.21875 20.6562H20.6562V2.21875C20.6562 1.72976 20.8505 1.26079 21.1963 0.915022C21.542 0.569252 22.011 0.375 22.5 0.375C22.989 0.375 23.458 0.569252 23.8037 0.915022C24.1495 1.26079 24.3438 1.72976 24.3438 2.21875V20.6562H42.7812C43.2702 20.6562 43.7392 20.8505 44.085 21.1963C44.4307 21.542 44.625 22.011 44.625 22.5Z" fill="#FF6DB3"/>
</svg>
