<svg width="37" height="37" viewBox="0 0 37 37" fill="none" xmlns="http://www.w3.org/2000/svg">
<path d="M36.3982 33.7893C36.5695 33.9606 36.7054 34.164 36.7981 34.3878C36.8908 34.6116 36.9385 34.8515 36.9385 35.0938C36.9385 35.336 36.8908 35.5759 36.7981 35.7997C36.7054 36.0235 36.5695 36.2269 36.3982 36.3982C36.2269 36.5695 36.0235 36.7054 35.7997 36.7981C35.5759 36.8908 35.336 36.9385 35.0937 36.9385C34.8515 36.9385 34.6116 36.8908 34.3878 36.7981C34.164 36.7054 33.9606 36.5695 33.7893 36.3982L18.5 21.1066L3.21069 36.3982C2.86473 36.7442 2.3955 36.9385 1.90624 36.9385C1.41697 36.9385 0.947747 36.7442 0.601784 36.3982C0.255822 36.0522 0.0614624 35.583 0.0614624 35.0938C0.0614624 34.6045 0.255822 34.1353 0.601784 33.7893L15.8934 18.5L0.601784 3.2107C0.255822 2.86474 0.0614624 2.39551 0.0614624 1.90625C0.0614624 1.41698 0.255822 0.947758 0.601784 0.601796C0.947747 0.255833 1.41697 0.0614738 1.90624 0.0614738C2.3955 0.0614738 2.86473 0.255833 3.21069 0.601796L18.5 15.8934L33.7893 0.601796C34.1352 0.255833 34.6045 0.0614738 35.0937 0.0614738C35.583 0.0614739 36.0522 0.255833 36.3982 0.601796C36.7442 0.947758 36.9385 1.41698 36.9385 1.90625C36.9385 2.39551 36.7442 2.86474 36.3982 3.2107L21.1066 18.5L36.3982 33.7893Z" fill="#FF6DB3"/>
</svg>
